%TF.GenerationSoftware,KiCad,Pcbnew,7.0.11+dfsg-1build4*%
%TF.CreationDate,2024-08-04T00:39:11+02:00*%
%TF.ProjectId,SmallESC,536d616c-6c45-4534-932e-6b696361645f,rev?*%
%TF.SameCoordinates,Original*%
%TF.FileFunction,Copper,L1,Top*%
%TF.FilePolarity,Positive*%
%FSLAX46Y46*%
G04 Gerber Fmt 4.6, Leading zero omitted, Abs format (unit mm)*
G04 Created by KiCad (PCBNEW 7.0.11+dfsg-1build4) date 2024-08-04 00:39:11*
%MOMM*%
%LPD*%
G01*
G04 APERTURE LIST*
G04 Aperture macros list*
%AMRoundRect*
0 Rectangle with rounded corners*
0 $1 Rounding radius*
0 $2 $3 $4 $5 $6 $7 $8 $9 X,Y pos of 4 corners*
0 Add a 4 corners polygon primitive as box body*
4,1,4,$2,$3,$4,$5,$6,$7,$8,$9,$2,$3,0*
0 Add four circle primitives for the rounded corners*
1,1,$1+$1,$2,$3*
1,1,$1+$1,$4,$5*
1,1,$1+$1,$6,$7*
1,1,$1+$1,$8,$9*
0 Add four rect primitives between the rounded corners*
20,1,$1+$1,$2,$3,$4,$5,0*
20,1,$1+$1,$4,$5,$6,$7,0*
20,1,$1+$1,$6,$7,$8,$9,0*
20,1,$1+$1,$8,$9,$2,$3,0*%
G04 Aperture macros list end*
%TA.AperFunction,ComponentPad*%
%ADD10R,2.500000X2.500000*%
%TD*%
%TA.AperFunction,ComponentPad*%
%ADD11C,2.500000*%
%TD*%
%TA.AperFunction,ComponentPad*%
%ADD12R,1.600000X1.600000*%
%TD*%
%TA.AperFunction,ComponentPad*%
%ADD13O,1.600000X1.600000*%
%TD*%
%TA.AperFunction,SMDPad,CuDef*%
%ADD14RoundRect,0.250000X-0.350000X-0.450000X0.350000X-0.450000X0.350000X0.450000X-0.350000X0.450000X0*%
%TD*%
%TA.AperFunction,ComponentPad*%
%ADD15C,1.440000*%
%TD*%
%TA.AperFunction,SMDPad,CuDef*%
%ADD16RoundRect,0.250000X0.350000X0.450000X-0.350000X0.450000X-0.350000X-0.450000X0.350000X-0.450000X0*%
%TD*%
%TA.AperFunction,ComponentPad*%
%ADD17R,1.700000X1.700000*%
%TD*%
%TA.AperFunction,ComponentPad*%
%ADD18O,1.700000X1.700000*%
%TD*%
%TA.AperFunction,SMDPad,CuDef*%
%ADD19RoundRect,0.250000X-0.250000X-0.475000X0.250000X-0.475000X0.250000X0.475000X-0.250000X0.475000X0*%
%TD*%
%TA.AperFunction,SMDPad,CuDef*%
%ADD20R,1.792199X0.431000*%
%TD*%
%TA.AperFunction,SMDPad,CuDef*%
%ADD21R,6.197600X16.002001*%
%TD*%
%TA.AperFunction,SMDPad,CuDef*%
%ADD22R,1.000000X1.000000*%
%TD*%
%TA.AperFunction,ViaPad*%
%ADD23C,0.600000*%
%TD*%
%TA.AperFunction,Conductor*%
%ADD24C,0.200000*%
%TD*%
%TA.AperFunction,Conductor*%
%ADD25C,0.400000*%
%TD*%
%TA.AperFunction,Conductor*%
%ADD26C,1.000000*%
%TD*%
G04 APERTURE END LIST*
D10*
%TO.P,J1,1,Pin_1*%
%TO.N,GND*%
X53086000Y-51816000D03*
D11*
%TO.P,J1,2,Pin_2*%
%TO.N,VDC*%
X58086000Y-51816000D03*
%TD*%
D12*
%TO.P,D2,1,K*%
%TO.N,Net-(D2-K)*%
X86614000Y-70612000D03*
D13*
%TO.P,D2,2,A*%
%TO.N,VDC*%
X78994000Y-70612000D03*
%TD*%
D14*
%TO.P,R6,1*%
%TO.N,/SENSEA*%
X79280000Y-60960000D03*
%TO.P,R6,2*%
%TO.N,GND*%
X81280000Y-60960000D03*
%TD*%
D15*
%TO.P,RV2,1,1*%
%TO.N,GND*%
X84836000Y-54864000D03*
%TO.P,RV2,2,2*%
%TO.N,Net-(U1-RCOFF)*%
X84836000Y-57404000D03*
%TO.P,RV2,3,3*%
X84836000Y-59944000D03*
%TD*%
D16*
%TO.P,R2,2*%
%TO.N,/H3*%
X83328000Y-65913000D03*
%TO.P,R2,1*%
%TO.N,+5V*%
X85328000Y-65913000D03*
%TD*%
D17*
%TO.P,J4,1,Pin_1*%
%TO.N,/H3*%
X90932000Y-68580000D03*
D18*
%TO.P,J4,2,Pin_2*%
%TO.N,/H2*%
X90932000Y-66040000D03*
%TO.P,J4,3,Pin_3*%
%TO.N,/H1*%
X90932000Y-63500000D03*
%TD*%
D19*
%TO.P,C1,1*%
%TO.N,/VBOOT*%
X53660000Y-71120000D03*
%TO.P,C1,2*%
%TO.N,GND*%
X55560000Y-71120000D03*
%TD*%
%TO.P,C3,1*%
%TO.N,Net-(U1-RCOFF)*%
X75758000Y-61087000D03*
%TO.P,C3,2*%
%TO.N,GND*%
X77658000Y-61087000D03*
%TD*%
D14*
%TO.P,R7,1*%
%TO.N,/SENSEA*%
X79264000Y-58928000D03*
%TO.P,R7,2*%
%TO.N,GND*%
X81264000Y-58928000D03*
%TD*%
D15*
%TO.P,RV1,1,1*%
%TO.N,GND*%
X55880000Y-59944000D03*
%TO.P,RV1,2,2*%
%TO.N,Net-(U1-RCPULSE)*%
X55880000Y-62484000D03*
%TO.P,RV1,3,3*%
X55880000Y-65024000D03*
%TD*%
D16*
%TO.P,R1,1*%
%TO.N,+5V*%
X85328000Y-67818000D03*
%TO.P,R1,2*%
%TO.N,/H2*%
X83328000Y-67818000D03*
%TD*%
D17*
%TO.P,J2,1,Pin_1*%
%TO.N,/Motor1*%
X69581000Y-54356000D03*
D18*
%TO.P,J2,2,Pin_2*%
%TO.N,/Motor2*%
X67041000Y-54356000D03*
%TO.P,J2,3,Pin_3*%
%TO.N,/Motor3*%
X64501000Y-54356000D03*
%TD*%
D16*
%TO.P,R3,1*%
%TO.N,+5V*%
X85328000Y-64008000D03*
%TO.P,R3,2*%
%TO.N,/H1*%
X83328000Y-64008000D03*
%TD*%
D17*
%TO.P,J3,1,Pin_1*%
%TO.N,/DIAG*%
X50800000Y-58420000D03*
D18*
%TO.P,J3,2,Pin_2*%
%TO.N,/DIR*%
X50800000Y-60960000D03*
%TO.P,J3,3,Pin_3*%
%TO.N,/ENABLE*%
X50800000Y-63500000D03*
%TO.P,J3,4,Pin_4*%
%TO.N,/SPEED*%
X50800000Y-66040000D03*
%TO.P,J3,5,Pin_5*%
%TO.N,/BRAKE*%
X50800000Y-68580000D03*
%TO.P,J3,6,Pin_6*%
%TO.N,/VBOOT*%
X50800000Y-71120000D03*
%TD*%
D20*
%TO.P,U1,1,GND*%
%TO.N,GND*%
X73660000Y-70530001D03*
%TO.P,U1,2,NC*%
%TO.N,unconnected-(U1-NC-Pad2)*%
X73660000Y-69880000D03*
%TO.P,U1,3,NC*%
%TO.N,unconnected-(U1-NC-Pad3)*%
X73660000Y-69229999D03*
%TO.P,U1,4,VSA*%
%TO.N,VDC*%
X73660000Y-68580000D03*
%TO.P,U1,5,OUT2*%
%TO.N,/Motor2*%
X73660000Y-67929999D03*
%TO.P,U1,6,NC*%
%TO.N,unconnected-(U1-NC-Pad6)*%
X73660000Y-67280000D03*
%TO.P,U1,7,VCP*%
%TO.N,Net-(U1-VCP)*%
X73660000Y-66629999D03*
%TO.P,U1,8,H2*%
%TO.N,/H2*%
X73660000Y-65980000D03*
%TO.P,U1,9,H3*%
%TO.N,/H3*%
X73660000Y-65329999D03*
%TO.P,U1,10,H1*%
%TO.N,/H1*%
X73660000Y-64680000D03*
%TO.P,U1,11,DIAG*%
%TO.N,/DIAG*%
X73660000Y-64029999D03*
%TO.P,U1,12,SENSEA*%
%TO.N,/SENSEA*%
X73660000Y-63380000D03*
%TO.P,U1,13,RCOFF*%
%TO.N,Net-(U1-RCOFF)*%
X73660000Y-62729999D03*
%TO.P,U1,14,NC*%
%TO.N,unconnected-(U1-NC-Pad14)*%
X73660000Y-62080001D03*
%TO.P,U1,15,OUT1*%
%TO.N,/Motor1*%
X73660000Y-61429999D03*
%TO.P,U1,16,NC*%
%TO.N,unconnected-(U1-NC-Pad16)*%
X73660000Y-60780001D03*
%TO.P,U1,17,NC*%
%TO.N,unconnected-(U1-NC-Pad17)*%
X73660000Y-60130002D03*
%TO.P,U1,18,GND*%
%TO.N,GND*%
X73660000Y-59480001D03*
%TO.P,U1,19,GND*%
X60248800Y-59480001D03*
%TO.P,U1,20,NC*%
%TO.N,unconnected-(U1-NC-Pad20)*%
X60248800Y-60130002D03*
%TO.P,U1,21,NC*%
%TO.N,unconnected-(U1-NC-Pad21)*%
X60248800Y-60780001D03*
%TO.P,U1,22,TACHO*%
%TO.N,Net-(U1-TACHO)*%
X60248800Y-61430002D03*
%TO.P,U1,23,NC*%
%TO.N,unconnected-(U1-NC-Pad23)*%
X60248800Y-62080001D03*
%TO.P,U1,24,RCPULSE*%
%TO.N,Net-(U1-RCPULSE)*%
X60248800Y-62730002D03*
%TO.P,U1,25,SENSEB*%
%TO.N,/SENSEA*%
X60248800Y-63380000D03*
%TO.P,U1,26,FWD/REV*%
%TO.N,/DIR*%
X60248800Y-64030002D03*
%TO.P,U1,27,EN*%
%TO.N,/ENABLE*%
X60248800Y-64680000D03*
%TO.P,U1,28,VREF*%
%TO.N,/SPEED*%
X60248800Y-65330002D03*
%TO.P,U1,29,BRAKE*%
%TO.N,/BRAKE*%
X60248800Y-65980000D03*
%TO.P,U1,30,VBOOT*%
%TO.N,/VBOOT*%
X60248800Y-66630002D03*
%TO.P,U1,31,NC*%
%TO.N,unconnected-(U1-NC-Pad31)*%
X60248800Y-67280000D03*
%TO.P,U1,32,OUT3*%
%TO.N,/Motor3*%
X60248800Y-67930001D03*
%TO.P,U1,33,VSB*%
%TO.N,VDC*%
X60248800Y-68580000D03*
%TO.P,U1,34,NC*%
%TO.N,unconnected-(U1-NC-Pad34)*%
X60248800Y-69230001D03*
%TO.P,U1,35,NC*%
%TO.N,unconnected-(U1-NC-Pad35)*%
X60248800Y-69880000D03*
%TO.P,U1,36,GND*%
%TO.N,GND*%
X60248800Y-70530001D03*
D21*
%TO.P,U1,EPAD,37*%
X66954400Y-65005001D03*
%TD*%
D14*
%TO.P,R5,1*%
%TO.N,/SENSEA*%
X79280000Y-62865000D03*
%TO.P,R5,2*%
%TO.N,GND*%
X81280000Y-62865000D03*
%TD*%
D16*
%TO.P,R4,1*%
%TO.N,Net-(D2-K)*%
X80756000Y-68072000D03*
%TO.P,R4,2*%
%TO.N,Net-(U1-VCP)*%
X78756000Y-68072000D03*
%TD*%
D22*
%TO.P,5V,1,1*%
%TO.N,+5V*%
X87249000Y-65913000D03*
%TD*%
%TO.P,TACHO,1,1*%
%TO.N,Net-(U1-TACHO)*%
X58928000Y-57404000D03*
%TD*%
D12*
%TO.P,D3,1,K*%
%TO.N,/VBOOT*%
X78994000Y-73152000D03*
D13*
%TO.P,D3,2,A*%
%TO.N,Net-(D2-K)*%
X86614000Y-73152000D03*
%TD*%
D23*
%TO.N,GND*%
X52832000Y-67818000D03*
X82423000Y-69723000D03*
X86868000Y-63754000D03*
X87757000Y-61468000D03*
X83185000Y-62103000D03*
X86487000Y-57404000D03*
X91821000Y-56134000D03*
X81661000Y-54737000D03*
X77216000Y-54483000D03*
X73406000Y-54356000D03*
X77851000Y-59309000D03*
X73279000Y-58293000D03*
X68453000Y-50165000D03*
X85344000Y-50165000D03*
X64008000Y-50165000D03*
X76327000Y-50165000D03*
X80518000Y-50165000D03*
X90959027Y-50939452D03*
X72644000Y-50165000D03*
X88773000Y-50165000D03*
X60198000Y-50292000D03*
X56007000Y-50292000D03*
X54229000Y-54102000D03*
X53086000Y-54102000D03*
X51816000Y-53975000D03*
X49657000Y-53213000D03*
X50423422Y-51035001D03*
X49530000Y-56515000D03*
X53975000Y-62230000D03*
X52959000Y-65532000D03*
X58166000Y-68199000D03*
X62992000Y-69088000D03*
X80772000Y-71247000D03*
X88646000Y-70104000D03*
X69723000Y-66040000D03*
X64262000Y-65913000D03*
X69596000Y-57404000D03*
X64262000Y-57531000D03*
X64389000Y-70866000D03*
X69342000Y-71882000D03*
X71628000Y-69469000D03*
X75692000Y-69723000D03*
X75438000Y-67310000D03*
X88138000Y-68072000D03*
X89535000Y-64643000D03*
X91948000Y-61595000D03*
X91821000Y-70485000D03*
X91047446Y-73686131D03*
X88646000Y-74549000D03*
X85217000Y-74549000D03*
X80391000Y-74549000D03*
X76200000Y-74549000D03*
X72517000Y-74549000D03*
X68326000Y-74549000D03*
X63881000Y-74549000D03*
X58801000Y-74549000D03*
X53975000Y-74549000D03*
X50270646Y-73512732D03*
X56515000Y-71120000D03*
X82296000Y-58928000D03*
X82296000Y-62865000D03*
X82296000Y-60960000D03*
%TO.N,/DIAG*%
X70612000Y-64389000D03*
%TO.N,/VBOOT*%
X58547000Y-66675000D03*
%TO.N,/H2*%
X82558000Y-67048000D03*
%TO.N,Net-(U1-RCOFF)*%
X77978000Y-62780000D03*
%TO.N,/Motor2*%
X72263000Y-67945000D03*
X71628000Y-67945000D03*
%TO.N,/SENSEA*%
X70612000Y-63500000D03*
X58928000Y-63500000D03*
%TD*%
D24*
%TO.N,/VBOOT*%
X53660000Y-71120000D02*
X50800000Y-71120000D01*
%TO.N,+5V*%
X87249000Y-65913000D02*
X85328000Y-65913000D01*
%TO.N,GND*%
X55560000Y-71120000D02*
X56515000Y-71120000D01*
%TO.N,VDC*%
X78994000Y-70612000D02*
X78867000Y-70612000D01*
X78867000Y-70612000D02*
X76835000Y-68580000D01*
X76835000Y-68580000D02*
X73660000Y-68580000D01*
%TO.N,GND*%
X81280000Y-62865000D02*
X82296000Y-62865000D01*
X81280000Y-60960000D02*
X82296000Y-60960000D01*
X81264000Y-58928000D02*
X82296000Y-58928000D01*
X81264000Y-58928000D02*
X81264000Y-60944000D01*
X81264000Y-60944000D02*
X81280000Y-60960000D01*
X81280000Y-62865000D02*
X81280000Y-60960000D01*
%TO.N,Net-(U1-RCOFF)*%
X73660000Y-62729999D02*
X74756099Y-62729999D01*
X74756099Y-62729999D02*
X75758000Y-61728098D01*
X75758000Y-61728098D02*
X75758000Y-61087000D01*
%TO.N,/DIAG*%
X73660000Y-64029999D02*
X70971001Y-64029999D01*
X70971001Y-64029999D02*
X70612000Y-64389000D01*
%TO.N,/DIR*%
X50800000Y-60960000D02*
X53444000Y-63604000D01*
X53444000Y-63604000D02*
X57150494Y-63604000D01*
X60143802Y-64135000D02*
X60248800Y-64030002D01*
X57150494Y-63604000D02*
X57681494Y-64135000D01*
X57681494Y-64135000D02*
X60143802Y-64135000D01*
%TO.N,/ENABLE*%
X60248800Y-64680000D02*
X56900000Y-64680000D01*
X51939000Y-64004000D02*
X51435000Y-63500000D01*
X56900000Y-64680000D02*
X56900000Y-64601502D01*
X56900000Y-64601502D02*
X56302498Y-64004000D01*
X56302498Y-64004000D02*
X51939000Y-64004000D01*
X51435000Y-63500000D02*
X50800000Y-63500000D01*
%TO.N,/SPEED*%
X50800000Y-66040000D02*
X51650000Y-66890000D01*
X57802312Y-65330002D02*
X60248800Y-65330002D01*
X51650000Y-66890000D02*
X56242314Y-66890000D01*
X56242314Y-66890000D02*
X57802312Y-65330002D01*
%TO.N,/BRAKE*%
X50800000Y-68580000D02*
X55118000Y-68580000D01*
X55118000Y-68580000D02*
X57718000Y-65980000D01*
X57718000Y-65980000D02*
X60248800Y-65980000D01*
%TO.N,/VBOOT*%
X60248800Y-66630002D02*
X58591998Y-66630002D01*
X58591998Y-66630002D02*
X58547000Y-66675000D01*
%TO.N,/H3*%
X90932000Y-68580000D02*
X90640000Y-68872000D01*
X90640000Y-68872000D02*
X84797256Y-68872000D01*
X84797256Y-68872000D02*
X84228000Y-68302744D01*
X84228000Y-68302744D02*
X84228000Y-66813000D01*
X84228000Y-66813000D02*
X83328000Y-65913000D01*
%TO.N,/H1*%
X90932000Y-63500000D02*
X90082000Y-62650000D01*
X84686000Y-62650000D02*
X83328000Y-64008000D01*
X90082000Y-62650000D02*
X84686000Y-62650000D01*
%TO.N,Net-(U1-RCOFF)*%
X84836000Y-59944000D02*
X84836000Y-57404000D01*
X77978000Y-62780000D02*
X77927999Y-62729999D01*
X77927999Y-62729999D02*
X73660000Y-62729999D01*
D25*
%TO.N,/Motor2*%
X71628000Y-67945000D02*
X72263000Y-67945000D01*
X72278001Y-67929999D02*
X72263000Y-67945000D01*
X72263000Y-67914998D02*
X72278001Y-67929999D01*
X73660000Y-67929999D02*
X72278001Y-67929999D01*
D24*
%TO.N,/SENSEA*%
X70612000Y-63500000D02*
X73540000Y-63500000D01*
X73540000Y-63500000D02*
X73660000Y-63380000D01*
X60248800Y-63380000D02*
X59048000Y-63380000D01*
X59048000Y-63380000D02*
X58928000Y-63500000D01*
%TO.N,Net-(U1-RCPULSE)*%
X60248800Y-62730002D02*
X56126002Y-62730002D01*
X56126002Y-62730002D02*
X55880000Y-62484000D01*
%TO.N,Net-(U1-TACHO)*%
X60248800Y-61430002D02*
X59152701Y-61430002D01*
X59152701Y-61430002D02*
X58928000Y-61205301D01*
X58928000Y-61205301D02*
X58928000Y-57404000D01*
D25*
%TO.N,/Motor3*%
X60248800Y-67930001D02*
X61609999Y-67930001D01*
X61609999Y-67930001D02*
X61976000Y-67564000D01*
D26*
X64501000Y-54356000D02*
X62484000Y-56373000D01*
X62484000Y-56373000D02*
X62484000Y-67564000D01*
X62484000Y-67564000D02*
X61976000Y-68072000D01*
X61976000Y-68072000D02*
X61976000Y-67564000D01*
D24*
X61710900Y-67564000D02*
X61976000Y-67564000D01*
D25*
%TO.N,/Motor1*%
X73660000Y-61429999D02*
X72097999Y-61429999D01*
D26*
X72097999Y-61429999D02*
X71628000Y-60960000D01*
X71628000Y-55053000D02*
X70931000Y-54356000D01*
X71628000Y-60960000D02*
X71628000Y-55053000D01*
X70931000Y-54356000D02*
X69581000Y-54356000D01*
D24*
%TO.N,/SENSEA*%
X79280000Y-62865000D02*
X79280000Y-60960000D01*
X73660000Y-63380000D02*
X78352000Y-63380000D01*
X78352000Y-63380000D02*
X78867000Y-62865000D01*
X78867000Y-62865000D02*
X79280000Y-62865000D01*
%TO.N,/H1*%
X73660000Y-64680000D02*
X82656000Y-64680000D01*
X82656000Y-64680000D02*
X83328000Y-64008000D01*
%TO.N,/H3*%
X79045999Y-65329999D02*
X79756000Y-66040000D01*
X73660000Y-65329999D02*
X79045999Y-65329999D01*
X79756000Y-66040000D02*
X79883000Y-65913000D01*
X79883000Y-65913000D02*
X83328000Y-65913000D01*
%TO.N,/H2*%
X82058000Y-66548000D02*
X79248000Y-66548000D01*
X83328000Y-67818000D02*
X82058000Y-66548000D01*
X79248000Y-66548000D02*
X78680000Y-65980000D01*
X78680000Y-65980000D02*
X73660000Y-65980000D01*
%TO.N,Net-(U1-VCP)*%
X78756000Y-68072000D02*
X77313999Y-66629999D01*
X77313999Y-66629999D02*
X73660000Y-66629999D01*
%TO.N,Net-(D2-K)*%
X80756000Y-69580000D02*
X81788000Y-70612000D01*
X80756000Y-68072000D02*
X80756000Y-69580000D01*
X81788000Y-70612000D02*
X86614000Y-70612000D01*
%TO.N,Net-(U1-VCP)*%
X73705001Y-66675000D02*
X73660000Y-66629999D01*
%TO.N,Net-(D2-K)*%
X86614000Y-70612000D02*
X86614000Y-73152000D01*
%TD*%
%TA.AperFunction,Conductor*%
%TO.N,GND*%
G36*
X65855855Y-55022546D02*
G01*
X65872575Y-55041842D01*
X65977465Y-55191641D01*
X66002505Y-55227401D01*
X66169599Y-55394495D01*
X66266384Y-55462265D01*
X66363165Y-55530032D01*
X66363167Y-55530033D01*
X66363170Y-55530035D01*
X66577337Y-55629903D01*
X66805592Y-55691063D01*
X66982034Y-55706500D01*
X67040999Y-55711659D01*
X67041000Y-55711659D01*
X67041001Y-55711659D01*
X67099966Y-55706500D01*
X67276408Y-55691063D01*
X67504663Y-55629903D01*
X67718830Y-55530035D01*
X67912401Y-55394495D01*
X68034329Y-55272566D01*
X68095648Y-55239084D01*
X68165340Y-55244068D01*
X68221274Y-55285939D01*
X68238189Y-55316917D01*
X68287202Y-55448328D01*
X68287206Y-55448335D01*
X68373452Y-55563544D01*
X68373455Y-55563547D01*
X68488664Y-55649793D01*
X68488671Y-55649797D01*
X68623517Y-55700091D01*
X68623516Y-55700091D01*
X68630444Y-55700835D01*
X68683127Y-55706500D01*
X70478872Y-55706499D01*
X70478874Y-55706498D01*
X70478887Y-55706498D01*
X70490244Y-55705277D01*
X70559003Y-55717681D01*
X70610141Y-55765291D01*
X70627500Y-55828566D01*
X70627500Y-60945721D01*
X70627460Y-60948861D01*
X70625243Y-61036362D01*
X70625243Y-61036371D01*
X70635648Y-61094420D01*
X70636956Y-61103748D01*
X70642925Y-61162430D01*
X70642927Y-61162444D01*
X70652033Y-61191468D01*
X70655772Y-61206701D01*
X70661142Y-61236653D01*
X70661142Y-61236655D01*
X70683020Y-61291424D01*
X70686177Y-61300292D01*
X70703841Y-61356588D01*
X70703842Y-61356589D01*
X70703844Y-61356595D01*
X70718603Y-61383185D01*
X70725336Y-61397361D01*
X70735842Y-61423663D01*
X70736622Y-61425614D01*
X70736627Y-61425624D01*
X70769080Y-61474866D01*
X70773962Y-61482923D01*
X70802588Y-61534498D01*
X70802589Y-61534500D01*
X70802591Y-61534502D01*
X70822410Y-61557588D01*
X70831855Y-61570115D01*
X70848599Y-61595521D01*
X70890299Y-61637221D01*
X70896703Y-61644130D01*
X70935132Y-61688893D01*
X70935134Y-61688895D01*
X70959193Y-61707518D01*
X70970972Y-61717893D01*
X71426419Y-62173339D01*
X71544592Y-62269697D01*
X71724950Y-62363908D01*
X71920581Y-62419886D01*
X71954396Y-62422461D01*
X72123470Y-62435336D01*
X72123471Y-62435335D01*
X72123475Y-62435336D01*
X72123725Y-62435304D01*
X72123864Y-62435326D01*
X72129758Y-62435177D01*
X72129785Y-62436275D01*
X72192714Y-62446355D01*
X72244777Y-62492951D01*
X72263400Y-62558308D01*
X72263400Y-62667343D01*
X72263401Y-62775499D01*
X72243717Y-62842539D01*
X72190913Y-62888294D01*
X72139401Y-62899500D01*
X71194412Y-62899500D01*
X71127373Y-62879815D01*
X71117097Y-62872445D01*
X71114263Y-62870185D01*
X71114262Y-62870184D01*
X71037847Y-62822169D01*
X70961523Y-62774211D01*
X70791254Y-62714631D01*
X70791249Y-62714630D01*
X70612004Y-62694435D01*
X70611996Y-62694435D01*
X70432750Y-62714630D01*
X70432745Y-62714631D01*
X70262476Y-62774211D01*
X70109737Y-62870184D01*
X69982184Y-62997737D01*
X69886211Y-63150476D01*
X69826631Y-63320745D01*
X69826630Y-63320750D01*
X69806435Y-63499996D01*
X69806435Y-63500003D01*
X69826630Y-63679249D01*
X69826633Y-63679262D01*
X69886209Y-63849519D01*
X69904437Y-63878530D01*
X69923436Y-63945767D01*
X69904437Y-64010470D01*
X69886209Y-64039480D01*
X69826633Y-64209737D01*
X69826630Y-64209750D01*
X69806435Y-64388996D01*
X69806435Y-64389003D01*
X69826630Y-64568249D01*
X69826631Y-64568254D01*
X69886211Y-64738523D01*
X69946063Y-64833776D01*
X69982184Y-64891262D01*
X70109738Y-65018816D01*
X70262478Y-65114789D01*
X70416258Y-65168599D01*
X70432745Y-65174368D01*
X70432750Y-65174369D01*
X70611996Y-65194565D01*
X70612000Y-65194565D01*
X70612004Y-65194565D01*
X70791249Y-65174369D01*
X70791252Y-65174368D01*
X70791255Y-65174368D01*
X70961522Y-65114789D01*
X71114262Y-65018816D01*
X71241816Y-64891262D01*
X71337789Y-64738522D01*
X71346529Y-64713545D01*
X71387251Y-64656769D01*
X71452203Y-64631021D01*
X71463571Y-64630499D01*
X72139400Y-64630499D01*
X72206439Y-64650184D01*
X72252194Y-64702988D01*
X72263400Y-64754498D01*
X72263400Y-64943369D01*
X72263401Y-64943372D01*
X72266792Y-64974921D01*
X72268601Y-64991742D01*
X72268601Y-65018249D01*
X72264602Y-65055452D01*
X72263400Y-65066629D01*
X72263400Y-65593369D01*
X72263401Y-65593375D01*
X72268601Y-65641747D01*
X72268601Y-65668252D01*
X72263400Y-65716627D01*
X72263400Y-65716632D01*
X72263400Y-65716633D01*
X72263400Y-66243370D01*
X72263401Y-66243374D01*
X72268601Y-66291742D01*
X72268601Y-66318249D01*
X72263400Y-66366629D01*
X72263400Y-66893369D01*
X72263401Y-66893375D01*
X72268601Y-66941747D01*
X72268601Y-66968252D01*
X72263400Y-67016627D01*
X72263400Y-67016632D01*
X72263400Y-67028576D01*
X72243715Y-67095615D01*
X72190911Y-67141370D01*
X72153284Y-67151796D01*
X72083749Y-67159630D01*
X72083742Y-67159632D01*
X71986454Y-67193675D01*
X71916676Y-67197236D01*
X71904546Y-67193675D01*
X71807257Y-67159632D01*
X71807249Y-67159630D01*
X71628004Y-67139435D01*
X71627996Y-67139435D01*
X71448750Y-67159630D01*
X71448745Y-67159631D01*
X71278476Y-67219211D01*
X71125737Y-67315184D01*
X70998184Y-67442737D01*
X70902211Y-67595476D01*
X70842631Y-67765745D01*
X70842630Y-67765750D01*
X70822435Y-67944996D01*
X70822435Y-67945003D01*
X70842630Y-68124249D01*
X70842631Y-68124254D01*
X70902211Y-68294523D01*
X70946305Y-68364697D01*
X70998184Y-68447262D01*
X71125738Y-68574816D01*
X71278478Y-68670789D01*
X71351453Y-68696324D01*
X71448745Y-68730368D01*
X71448750Y-68730369D01*
X71627996Y-68750565D01*
X71628000Y-68750565D01*
X71628004Y-68750565D01*
X71807251Y-68730369D01*
X71807253Y-68730368D01*
X71807255Y-68730368D01*
X71904545Y-68696323D01*
X71974323Y-68692761D01*
X71986455Y-68696324D01*
X72083748Y-68730369D01*
X72083747Y-68730369D01*
X72154524Y-68738343D01*
X72218938Y-68765409D01*
X72258493Y-68823003D01*
X72263930Y-68848307D01*
X72268600Y-68891740D01*
X72268601Y-68918249D01*
X72266192Y-68940652D01*
X72263680Y-68964027D01*
X72263400Y-68966629D01*
X72263400Y-69493369D01*
X72263401Y-69493375D01*
X72268601Y-69541747D01*
X72268601Y-69568250D01*
X72263400Y-69616627D01*
X72263400Y-69616629D01*
X72263400Y-69616633D01*
X72263400Y-70143370D01*
X72263401Y-70143376D01*
X72268853Y-70194092D01*
X72268853Y-70220599D01*
X72263900Y-70266670D01*
X72263900Y-70314501D01*
X72273598Y-70324199D01*
X72307609Y-70334186D01*
X72339834Y-70364188D01*
X72398212Y-70442170D01*
X72406354Y-70453046D01*
X72498778Y-70522235D01*
X72540648Y-70578169D01*
X72545632Y-70647860D01*
X72512146Y-70709183D01*
X72450823Y-70742668D01*
X72424466Y-70745501D01*
X72263900Y-70745501D01*
X72263900Y-70793345D01*
X72270301Y-70852873D01*
X72270303Y-70852880D01*
X72320545Y-70987587D01*
X72320549Y-70987594D01*
X72406709Y-71102688D01*
X72406712Y-71102691D01*
X72521806Y-71188851D01*
X72521813Y-71188855D01*
X72656520Y-71239097D01*
X72656527Y-71239099D01*
X72716055Y-71245500D01*
X72716072Y-71245501D01*
X73444500Y-71245501D01*
X73444500Y-70719999D01*
X73464185Y-70652960D01*
X73516989Y-70607205D01*
X73568497Y-70595999D01*
X73751501Y-70595999D01*
X73818539Y-70615684D01*
X73864294Y-70668488D01*
X73875500Y-70719999D01*
X73875500Y-71245501D01*
X74603928Y-71245501D01*
X74603944Y-71245500D01*
X74663472Y-71239099D01*
X74663479Y-71239097D01*
X74798186Y-71188855D01*
X74798193Y-71188851D01*
X74913287Y-71102691D01*
X74913290Y-71102688D01*
X74999450Y-70987594D01*
X74999454Y-70987587D01*
X75049696Y-70852880D01*
X75049698Y-70852873D01*
X75056099Y-70793345D01*
X75056100Y-70793328D01*
X75056100Y-70745501D01*
X74895534Y-70745501D01*
X74828495Y-70725816D01*
X74782740Y-70673012D01*
X74772796Y-70603854D01*
X74801821Y-70540298D01*
X74821222Y-70522235D01*
X74861678Y-70491949D01*
X74913646Y-70453046D01*
X74980164Y-70364188D01*
X75036097Y-70322319D01*
X75050964Y-70319636D01*
X75056100Y-70314501D01*
X75056100Y-70266673D01*
X75056099Y-70266659D01*
X75051147Y-70220603D01*
X75051147Y-70194090D01*
X75053021Y-70176660D01*
X75056600Y-70143373D01*
X75056599Y-69616628D01*
X75051398Y-69568245D01*
X75051399Y-69541742D01*
X75052392Y-69532512D01*
X75056600Y-69493372D01*
X75056599Y-69304499D01*
X75076283Y-69237461D01*
X75129087Y-69191706D01*
X75180599Y-69180500D01*
X76534903Y-69180500D01*
X76601942Y-69200185D01*
X76622584Y-69216819D01*
X77675220Y-70269455D01*
X77708705Y-70330778D01*
X77707550Y-70379664D01*
X77709306Y-70379974D01*
X77708364Y-70385313D01*
X77688532Y-70611998D01*
X77688532Y-70612001D01*
X77708364Y-70838686D01*
X77708366Y-70838697D01*
X77767258Y-71058488D01*
X77767261Y-71058497D01*
X77863431Y-71264732D01*
X77863432Y-71264734D01*
X77993954Y-71451141D01*
X78154858Y-71612045D01*
X78179462Y-71629273D01*
X78223087Y-71683849D01*
X78230281Y-71753348D01*
X78198758Y-71815703D01*
X78138529Y-71851117D01*
X78121593Y-71854138D01*
X78086516Y-71857908D01*
X77951671Y-71908202D01*
X77951664Y-71908206D01*
X77836455Y-71994452D01*
X77836452Y-71994455D01*
X77750206Y-72109664D01*
X77750202Y-72109671D01*
X77699908Y-72244517D01*
X77696163Y-72279356D01*
X77693501Y-72304123D01*
X77693500Y-72304135D01*
X77693500Y-73999870D01*
X77693501Y-73999876D01*
X77699908Y-74059483D01*
X77750202Y-74194328D01*
X77750206Y-74194335D01*
X77836452Y-74309544D01*
X77836455Y-74309547D01*
X77951664Y-74395793D01*
X77951671Y-74395797D01*
X78086517Y-74446091D01*
X78086516Y-74446091D01*
X78093444Y-74446835D01*
X78146127Y-74452500D01*
X79841872Y-74452499D01*
X79901483Y-74446091D01*
X80036331Y-74395796D01*
X80151546Y-74309546D01*
X80237796Y-74194331D01*
X80288091Y-74059483D01*
X80294500Y-73999873D01*
X80294499Y-72304128D01*
X80288091Y-72244517D01*
X80266903Y-72187710D01*
X80237797Y-72109671D01*
X80237793Y-72109664D01*
X80151547Y-71994455D01*
X80151544Y-71994452D01*
X80036335Y-71908206D01*
X80036328Y-71908202D01*
X79901482Y-71857908D01*
X79901483Y-71857908D01*
X79866404Y-71854137D01*
X79801853Y-71827399D01*
X79762005Y-71770006D01*
X79759512Y-71700181D01*
X79795165Y-71640092D01*
X79808539Y-71629272D01*
X79833140Y-71612046D01*
X79994045Y-71451141D01*
X79994047Y-71451139D01*
X80124568Y-71264734D01*
X80220739Y-71058496D01*
X80279635Y-70838692D01*
X80299468Y-70612000D01*
X80299048Y-70607205D01*
X80284610Y-70442170D01*
X80279635Y-70385308D01*
X80241126Y-70241589D01*
X80242789Y-70171742D01*
X80281951Y-70113879D01*
X80346180Y-70086375D01*
X80415082Y-70097961D01*
X80448582Y-70121817D01*
X81329799Y-71003034D01*
X81340493Y-71015228D01*
X81359538Y-71040048D01*
X81359719Y-71040283D01*
X81359720Y-71040284D01*
X81397225Y-71069062D01*
X81397226Y-71069064D01*
X81397227Y-71069064D01*
X81441051Y-71102691D01*
X81485159Y-71136536D01*
X81485161Y-71136536D01*
X81485163Y-71136538D01*
X81535394Y-71157344D01*
X81631238Y-71197044D01*
X81709619Y-71207363D01*
X81787999Y-71217682D01*
X81788000Y-71217682D01*
X81819302Y-71213560D01*
X81835487Y-71212500D01*
X85189501Y-71212500D01*
X85256540Y-71232185D01*
X85302295Y-71284989D01*
X85313501Y-71336500D01*
X85313501Y-71459876D01*
X85319908Y-71519483D01*
X85370202Y-71654328D01*
X85370206Y-71654335D01*
X85456452Y-71769544D01*
X85456455Y-71769547D01*
X85571664Y-71855793D01*
X85571671Y-71855797D01*
X85577334Y-71857909D01*
X85706517Y-71906091D01*
X85741596Y-71909862D01*
X85806144Y-71936599D01*
X85845993Y-71993991D01*
X85848488Y-72063816D01*
X85812836Y-72123905D01*
X85799464Y-72134725D01*
X85774858Y-72151954D01*
X85613954Y-72312858D01*
X85483432Y-72499265D01*
X85483431Y-72499267D01*
X85387261Y-72705502D01*
X85387258Y-72705511D01*
X85328366Y-72925302D01*
X85328364Y-72925313D01*
X85308532Y-73151998D01*
X85308532Y-73152001D01*
X85328364Y-73378686D01*
X85328366Y-73378697D01*
X85387258Y-73598488D01*
X85387261Y-73598497D01*
X85483431Y-73804732D01*
X85483432Y-73804734D01*
X85613954Y-73991141D01*
X85774858Y-74152045D01*
X85774861Y-74152047D01*
X85961266Y-74282568D01*
X86167504Y-74378739D01*
X86387308Y-74437635D01*
X86549230Y-74451801D01*
X86613998Y-74457468D01*
X86614000Y-74457468D01*
X86614002Y-74457468D01*
X86670807Y-74452498D01*
X86840692Y-74437635D01*
X87060496Y-74378739D01*
X87266734Y-74282568D01*
X87453139Y-74152047D01*
X87614047Y-73991139D01*
X87744568Y-73804734D01*
X87840739Y-73598496D01*
X87899635Y-73378692D01*
X87919468Y-73152000D01*
X87899635Y-72925308D01*
X87840739Y-72705504D01*
X87744568Y-72499266D01*
X87614047Y-72312861D01*
X87614045Y-72312858D01*
X87453143Y-72151956D01*
X87428536Y-72134726D01*
X87384912Y-72080149D01*
X87377719Y-72010650D01*
X87409241Y-71948296D01*
X87469471Y-71912882D01*
X87486404Y-71909861D01*
X87521483Y-71906091D01*
X87656331Y-71855796D01*
X87771546Y-71769546D01*
X87857796Y-71654331D01*
X87908091Y-71519483D01*
X87914500Y-71459873D01*
X87914499Y-69764128D01*
X87908091Y-69704517D01*
X87908091Y-69704516D01*
X87883966Y-69639833D01*
X87878982Y-69570141D01*
X87912468Y-69508818D01*
X87973791Y-69475334D01*
X88000148Y-69472500D01*
X89477577Y-69472500D01*
X89544616Y-69492185D01*
X89590371Y-69544989D01*
X89593759Y-69553168D01*
X89638201Y-69672326D01*
X89638206Y-69672335D01*
X89724452Y-69787544D01*
X89724455Y-69787547D01*
X89839664Y-69873793D01*
X89839671Y-69873797D01*
X89974517Y-69924091D01*
X89974516Y-69924091D01*
X89981444Y-69924835D01*
X90034127Y-69930500D01*
X91829872Y-69930499D01*
X91889483Y-69924091D01*
X92024331Y-69873796D01*
X92074689Y-69836097D01*
X92140152Y-69811680D01*
X92208425Y-69826531D01*
X92257831Y-69875935D01*
X92273000Y-69935364D01*
X92273000Y-71434948D01*
X92272851Y-71441033D01*
X92256447Y-71774928D01*
X92255254Y-71787037D01*
X92206651Y-72114694D01*
X92204277Y-72126630D01*
X92123792Y-72447944D01*
X92120259Y-72459588D01*
X92008670Y-72771459D01*
X92004014Y-72782702D01*
X91862385Y-73082151D01*
X91856648Y-73092883D01*
X91686362Y-73376988D01*
X91679602Y-73387106D01*
X91482275Y-73653170D01*
X91474555Y-73662576D01*
X91252111Y-73908006D01*
X91243506Y-73916611D01*
X90998076Y-74139055D01*
X90988670Y-74146775D01*
X90722606Y-74344102D01*
X90712488Y-74350862D01*
X90428383Y-74521148D01*
X90417651Y-74526885D01*
X90118202Y-74668514D01*
X90106959Y-74673170D01*
X89795088Y-74784759D01*
X89783444Y-74788292D01*
X89462130Y-74868777D01*
X89450194Y-74871151D01*
X89122537Y-74919754D01*
X89110428Y-74920947D01*
X88795489Y-74936419D01*
X88776531Y-74937351D01*
X88770449Y-74937500D01*
X52707551Y-74937500D01*
X52701468Y-74937351D01*
X52681400Y-74936365D01*
X52367571Y-74920947D01*
X52355462Y-74919754D01*
X52027805Y-74871151D01*
X52015869Y-74868777D01*
X51694555Y-74788292D01*
X51682911Y-74784759D01*
X51371040Y-74673170D01*
X51359801Y-74668515D01*
X51060344Y-74526883D01*
X51049621Y-74521150D01*
X50846998Y-74399703D01*
X50765511Y-74350862D01*
X50755393Y-74344102D01*
X50489329Y-74146775D01*
X50479923Y-74139055D01*
X50392129Y-74059483D01*
X50234486Y-73916604D01*
X50225895Y-73908013D01*
X50003444Y-73662576D01*
X49995724Y-73653170D01*
X49798397Y-73387106D01*
X49791637Y-73376988D01*
X49621344Y-73092871D01*
X49615620Y-73082163D01*
X49473979Y-72782688D01*
X49469329Y-72771459D01*
X49445732Y-72705511D01*
X49371937Y-72499266D01*
X49357740Y-72459588D01*
X49354207Y-72447944D01*
X49340671Y-72393905D01*
X49273719Y-72126617D01*
X49271348Y-72114694D01*
X49263777Y-72063657D01*
X49233258Y-71857908D01*
X49222745Y-71787037D01*
X49221552Y-71774927D01*
X49215168Y-71644986D01*
X49206075Y-71459873D01*
X49205149Y-71441032D01*
X49205000Y-71434948D01*
X49205000Y-71224383D01*
X49224685Y-71157344D01*
X49269402Y-71118596D01*
X49239938Y-71101895D01*
X49207431Y-71040048D01*
X49205000Y-71015616D01*
X49205000Y-68684383D01*
X49224685Y-68617344D01*
X49269402Y-68578596D01*
X49239938Y-68561895D01*
X49207431Y-68500048D01*
X49205000Y-68475616D01*
X49205000Y-66144383D01*
X49224685Y-66077344D01*
X49269402Y-66038596D01*
X49239938Y-66021895D01*
X49207431Y-65960048D01*
X49205000Y-65935616D01*
X49205000Y-63604383D01*
X49224685Y-63537344D01*
X49269402Y-63498596D01*
X49239938Y-63481895D01*
X49207431Y-63420048D01*
X49205000Y-63395616D01*
X49205000Y-61064383D01*
X49224685Y-60997344D01*
X49269402Y-60958596D01*
X49239938Y-60941895D01*
X49207431Y-60880048D01*
X49205000Y-60855616D01*
X49205000Y-59357071D01*
X49224685Y-59290032D01*
X49277489Y-59244277D01*
X49346647Y-59234333D01*
X49410203Y-59263358D01*
X49447977Y-59322136D01*
X49452290Y-59343818D01*
X49455908Y-59377483D01*
X49506202Y-59512328D01*
X49506206Y-59512335D01*
X49592452Y-59627544D01*
X49592455Y-59627547D01*
X49707664Y-59713793D01*
X49707671Y-59713797D01*
X49839081Y-59762810D01*
X49895015Y-59804681D01*
X49919432Y-59870145D01*
X49904580Y-59938418D01*
X49883430Y-59966673D01*
X49761503Y-60088600D01*
X49625965Y-60282169D01*
X49625964Y-60282171D01*
X49526098Y-60496335D01*
X49526094Y-60496344D01*
X49464938Y-60724586D01*
X49464936Y-60724596D01*
X49452528Y-60866424D01*
X49427075Y-60931492D01*
X49387370Y-60960242D01*
X49410203Y-60970670D01*
X49447977Y-61029448D01*
X49452528Y-61053575D01*
X49464936Y-61195403D01*
X49464938Y-61195413D01*
X49526094Y-61423655D01*
X49526096Y-61423659D01*
X49526097Y-61423663D01*
X49594389Y-61570115D01*
X49625965Y-61637830D01*
X49625967Y-61637834D01*
X49761501Y-61831395D01*
X49761506Y-61831402D01*
X49928597Y-61998493D01*
X49928603Y-61998498D01*
X50114158Y-62128425D01*
X50157783Y-62183002D01*
X50164977Y-62252500D01*
X50133454Y-62314855D01*
X50114158Y-62331575D01*
X49928597Y-62461505D01*
X49761505Y-62628597D01*
X49625965Y-62822169D01*
X49625964Y-62822171D01*
X49526098Y-63036335D01*
X49526094Y-63036344D01*
X49464938Y-63264586D01*
X49464936Y-63264596D01*
X49452528Y-63406424D01*
X49427075Y-63471492D01*
X49387370Y-63500242D01*
X49410203Y-63510670D01*
X49447977Y-63569448D01*
X49452528Y-63593575D01*
X49464936Y-63735403D01*
X49464938Y-63735413D01*
X49526094Y-63963655D01*
X49526096Y-63963659D01*
X49526097Y-63963663D01*
X49561451Y-64039480D01*
X49625965Y-64177830D01*
X49625967Y-64177834D01*
X49734281Y-64332521D01*
X49761501Y-64371396D01*
X49761506Y-64371402D01*
X49928597Y-64538493D01*
X49928603Y-64538498D01*
X50114158Y-64668425D01*
X50157783Y-64723002D01*
X50164977Y-64792500D01*
X50133454Y-64854855D01*
X50114158Y-64871575D01*
X49928597Y-65001505D01*
X49761505Y-65168597D01*
X49625965Y-65362169D01*
X49625964Y-65362171D01*
X49526098Y-65576335D01*
X49526094Y-65576344D01*
X49464938Y-65804586D01*
X49464936Y-65804596D01*
X49452528Y-65946424D01*
X49427075Y-66011492D01*
X49387370Y-66040242D01*
X49410203Y-66050670D01*
X49447977Y-66109448D01*
X49452528Y-66133575D01*
X49464936Y-66275403D01*
X49464938Y-66275413D01*
X49526094Y-66503655D01*
X49526096Y-66503659D01*
X49526097Y-66503663D01*
X49561927Y-66580500D01*
X49625965Y-66717830D01*
X49625967Y-66717834D01*
X49718409Y-66849854D01*
X49761501Y-66911396D01*
X49761506Y-66911402D01*
X49928597Y-67078493D01*
X49928603Y-67078498D01*
X50114158Y-67208425D01*
X50157783Y-67263002D01*
X50164977Y-67332500D01*
X50133454Y-67394855D01*
X50114158Y-67411575D01*
X49928597Y-67541505D01*
X49761505Y-67708597D01*
X49625965Y-67902169D01*
X49625964Y-67902171D01*
X49526098Y-68116335D01*
X49526094Y-68116344D01*
X49464938Y-68344586D01*
X49464936Y-68344596D01*
X49452528Y-68486424D01*
X49427075Y-68551492D01*
X49387370Y-68580242D01*
X49410203Y-68590670D01*
X49447977Y-68649448D01*
X49452528Y-68673575D01*
X49464936Y-68815403D01*
X49464938Y-68815413D01*
X49526094Y-69043655D01*
X49526096Y-69043659D01*
X49526097Y-69043663D01*
X49590400Y-69181561D01*
X49625965Y-69257830D01*
X49625967Y-69257834D01*
X49761501Y-69451395D01*
X49761506Y-69451402D01*
X49928597Y-69618493D01*
X49928603Y-69618498D01*
X50114158Y-69748425D01*
X50157783Y-69803002D01*
X50164977Y-69872500D01*
X50133454Y-69934855D01*
X50114158Y-69951575D01*
X49928597Y-70081505D01*
X49761505Y-70248597D01*
X49625965Y-70442169D01*
X49625964Y-70442171D01*
X49526098Y-70656335D01*
X49526094Y-70656344D01*
X49464938Y-70884586D01*
X49464936Y-70884596D01*
X49452528Y-71026424D01*
X49427075Y-71091492D01*
X49387370Y-71120242D01*
X49410203Y-71130670D01*
X49447977Y-71189448D01*
X49452528Y-71213575D01*
X49464936Y-71355403D01*
X49464938Y-71355413D01*
X49526094Y-71583655D01*
X49526096Y-71583659D01*
X49526097Y-71583663D01*
X49598839Y-71739658D01*
X49625965Y-71797830D01*
X49625967Y-71797834D01*
X49707395Y-71914124D01*
X49761505Y-71991401D01*
X49928599Y-72158495D01*
X50025384Y-72226265D01*
X50122165Y-72294032D01*
X50122167Y-72294033D01*
X50122170Y-72294035D01*
X50336337Y-72393903D01*
X50564592Y-72455063D01*
X50752918Y-72471539D01*
X50799999Y-72475659D01*
X50800000Y-72475659D01*
X50800001Y-72475659D01*
X50839234Y-72472226D01*
X51035408Y-72455063D01*
X51263663Y-72393903D01*
X51477830Y-72294035D01*
X51671401Y-72158495D01*
X51838495Y-71991401D01*
X51974035Y-71797830D01*
X51976707Y-71792097D01*
X52022878Y-71739658D01*
X52089091Y-71720500D01*
X52571415Y-71720500D01*
X52638454Y-71740185D01*
X52684209Y-71792989D01*
X52689118Y-71805489D01*
X52725186Y-71914334D01*
X52817288Y-72063656D01*
X52941344Y-72187712D01*
X53090666Y-72279814D01*
X53257203Y-72334999D01*
X53359991Y-72345500D01*
X53960008Y-72345499D01*
X53960016Y-72345498D01*
X53960019Y-72345498D01*
X54016302Y-72339748D01*
X54062797Y-72334999D01*
X54229334Y-72279814D01*
X54378656Y-72187712D01*
X54502712Y-72063656D01*
X54504752Y-72060347D01*
X54506745Y-72058555D01*
X54507193Y-72057989D01*
X54507289Y-72058065D01*
X54556694Y-72013623D01*
X54625656Y-72002395D01*
X54689740Y-72030234D01*
X54715829Y-72060339D01*
X54717681Y-72063341D01*
X54717683Y-72063344D01*
X54841654Y-72187315D01*
X54990875Y-72279356D01*
X54990880Y-72279358D01*
X55157302Y-72334505D01*
X55157309Y-72334506D01*
X55260019Y-72344999D01*
X55309999Y-72344998D01*
X55310000Y-72344998D01*
X55310000Y-71370000D01*
X55810000Y-71370000D01*
X55810000Y-72344999D01*
X55859972Y-72344999D01*
X55859986Y-72344998D01*
X55962697Y-72334505D01*
X56129119Y-72279358D01*
X56129124Y-72279356D01*
X56278345Y-72187315D01*
X56402315Y-72063345D01*
X56494356Y-71914124D01*
X56494358Y-71914119D01*
X56549505Y-71747697D01*
X56549506Y-71747690D01*
X56559999Y-71644986D01*
X56560000Y-71644973D01*
X56560000Y-71370000D01*
X55810000Y-71370000D01*
X55310000Y-71370000D01*
X55310000Y-69895000D01*
X55810000Y-69895000D01*
X55810000Y-70870000D01*
X56559999Y-70870000D01*
X56559999Y-70595028D01*
X56559998Y-70595013D01*
X56549505Y-70492302D01*
X56494358Y-70325880D01*
X56494356Y-70325875D01*
X56402315Y-70176654D01*
X56278345Y-70052684D01*
X56129124Y-69960643D01*
X56129119Y-69960641D01*
X55962697Y-69905494D01*
X55962690Y-69905493D01*
X55859986Y-69895000D01*
X55810000Y-69895000D01*
X55310000Y-69895000D01*
X55309999Y-69894999D01*
X55260029Y-69895000D01*
X55260011Y-69895001D01*
X55157302Y-69905494D01*
X54990880Y-69960641D01*
X54990875Y-69960643D01*
X54841654Y-70052684D01*
X54717683Y-70176655D01*
X54717679Y-70176660D01*
X54715826Y-70179665D01*
X54714018Y-70181290D01*
X54713202Y-70182323D01*
X54713025Y-70182183D01*
X54663874Y-70226385D01*
X54594911Y-70237601D01*
X54530831Y-70209752D01*
X54504753Y-70179653D01*
X54504737Y-70179628D01*
X54502712Y-70176344D01*
X54378656Y-70052288D01*
X54229334Y-69960186D01*
X54062797Y-69905001D01*
X54062795Y-69905000D01*
X53960010Y-69894500D01*
X53359998Y-69894500D01*
X53359980Y-69894501D01*
X53257203Y-69905000D01*
X53257200Y-69905001D01*
X53090668Y-69960185D01*
X53090663Y-69960187D01*
X52941342Y-70052289D01*
X52817289Y-70176342D01*
X52725187Y-70325663D01*
X52725185Y-70325668D01*
X52689121Y-70434504D01*
X52649348Y-70491949D01*
X52584833Y-70518772D01*
X52571415Y-70519500D01*
X52089091Y-70519500D01*
X52022052Y-70499815D01*
X51976711Y-70447909D01*
X51974037Y-70442175D01*
X51974034Y-70442170D01*
X51974033Y-70442169D01*
X51892456Y-70325663D01*
X51838494Y-70248597D01*
X51671402Y-70081506D01*
X51671396Y-70081501D01*
X51485842Y-69951575D01*
X51442217Y-69896998D01*
X51435023Y-69827500D01*
X51466546Y-69765145D01*
X51485842Y-69748425D01*
X51570641Y-69689048D01*
X51671401Y-69618495D01*
X51838495Y-69451401D01*
X51974035Y-69257830D01*
X51976707Y-69252097D01*
X52022878Y-69199658D01*
X52089091Y-69180500D01*
X55070513Y-69180500D01*
X55086697Y-69181560D01*
X55118000Y-69185682D01*
X55118001Y-69185682D01*
X55170254Y-69178802D01*
X55274762Y-69165044D01*
X55420841Y-69104536D01*
X55459650Y-69074757D01*
X55546282Y-69008282D01*
X55565509Y-68983223D01*
X55576190Y-68971043D01*
X57604294Y-66942939D01*
X57665615Y-66909456D01*
X57735307Y-66914440D01*
X57791240Y-66956312D01*
X57809015Y-66989668D01*
X57821210Y-67024521D01*
X57899112Y-67148500D01*
X57917184Y-67177262D01*
X58044738Y-67304816D01*
X58088797Y-67332500D01*
X58192278Y-67397522D01*
X58197478Y-67400789D01*
X58367745Y-67460368D01*
X58367750Y-67460369D01*
X58546996Y-67480565D01*
X58547000Y-67480565D01*
X58547003Y-67480565D01*
X58647841Y-67469203D01*
X58718026Y-67461295D01*
X58786847Y-67473349D01*
X58838227Y-67520698D01*
X58855199Y-67571263D01*
X58857401Y-67591749D01*
X58857401Y-67618253D01*
X58852200Y-67666628D01*
X58852200Y-67666633D01*
X58852200Y-67666634D01*
X58852200Y-68193371D01*
X58852201Y-68193375D01*
X58857401Y-68241743D01*
X58857401Y-68268250D01*
X58852200Y-68316630D01*
X58852200Y-68843370D01*
X58852201Y-68843376D01*
X58857401Y-68891748D01*
X58857401Y-68918249D01*
X58852200Y-68966628D01*
X58852200Y-68966634D01*
X58852200Y-68966635D01*
X58852200Y-69493371D01*
X58852201Y-69493375D01*
X58853861Y-69508818D01*
X58856408Y-69532512D01*
X58857401Y-69541743D01*
X58857401Y-69568250D01*
X58857198Y-69570141D01*
X58852703Y-69611954D01*
X58852200Y-69616630D01*
X58852200Y-70143370D01*
X58852201Y-70143376D01*
X58857653Y-70194092D01*
X58857653Y-70220599D01*
X58852700Y-70266670D01*
X58852700Y-70314501D01*
X58862398Y-70324199D01*
X58896409Y-70334186D01*
X58928634Y-70364188D01*
X58987012Y-70442170D01*
X58995154Y-70453046D01*
X59087578Y-70522235D01*
X59129448Y-70578169D01*
X59134432Y-70647860D01*
X59100946Y-70709183D01*
X59039623Y-70742668D01*
X59013266Y-70745501D01*
X58852700Y-70745501D01*
X58852700Y-70793345D01*
X58859101Y-70852873D01*
X58859103Y-70852880D01*
X58909345Y-70987587D01*
X58909349Y-70987594D01*
X58995509Y-71102688D01*
X58995512Y-71102691D01*
X59110606Y-71188851D01*
X59110613Y-71188855D01*
X59245320Y-71239097D01*
X59245327Y-71239099D01*
X59304855Y-71245500D01*
X59304872Y-71245501D01*
X60033300Y-71245501D01*
X60033300Y-70719999D01*
X60052985Y-70652960D01*
X60105789Y-70607205D01*
X60157297Y-70595999D01*
X60340301Y-70595999D01*
X60407339Y-70615684D01*
X60453094Y-70668488D01*
X60464300Y-70719999D01*
X60464300Y-71245501D01*
X61192728Y-71245501D01*
X61192744Y-71245500D01*
X61252272Y-71239099D01*
X61252279Y-71239097D01*
X61386986Y-71188855D01*
X61386993Y-71188851D01*
X61502087Y-71102691D01*
X61502090Y-71102688D01*
X61588250Y-70987594D01*
X61588254Y-70987587D01*
X61638496Y-70852880D01*
X61638498Y-70852873D01*
X61644899Y-70793345D01*
X61644900Y-70793328D01*
X61644900Y-70745501D01*
X61484334Y-70745501D01*
X61417295Y-70725816D01*
X61371540Y-70673012D01*
X61361596Y-70603854D01*
X61390621Y-70540298D01*
X61410022Y-70522235D01*
X61450478Y-70491949D01*
X61502446Y-70453046D01*
X61568964Y-70364188D01*
X61624897Y-70322319D01*
X61639764Y-70319636D01*
X61644900Y-70314501D01*
X61644900Y-70266673D01*
X61644899Y-70266659D01*
X61639947Y-70220603D01*
X61639947Y-70194090D01*
X61641821Y-70176660D01*
X61645400Y-70143373D01*
X61645399Y-69616628D01*
X61640199Y-69568250D01*
X61640199Y-69541747D01*
X61645400Y-69493374D01*
X61645399Y-69180086D01*
X61665083Y-69113049D01*
X61717887Y-69067294D01*
X61787046Y-69057350D01*
X61800473Y-69060045D01*
X61823711Y-69066062D01*
X61823715Y-69066063D01*
X61825458Y-69066151D01*
X61847234Y-69069205D01*
X61848946Y-69069603D01*
X61936482Y-69071819D01*
X61939518Y-69071934D01*
X62026936Y-69076369D01*
X62028661Y-69076104D01*
X62050604Y-69074712D01*
X62052363Y-69074757D01*
X62138623Y-69059295D01*
X62141553Y-69058809D01*
X62220125Y-69046773D01*
X62228065Y-69045557D01*
X62228065Y-69045556D01*
X62228071Y-69045556D01*
X62229714Y-69044947D01*
X62250923Y-69039168D01*
X62250926Y-69039167D01*
X62252653Y-69038858D01*
X62333936Y-69006389D01*
X62336774Y-69005296D01*
X62418887Y-68974886D01*
X62420374Y-68973958D01*
X62439977Y-68964032D01*
X62441617Y-68963377D01*
X62514666Y-68915233D01*
X62517286Y-68913552D01*
X62591571Y-68867252D01*
X62592846Y-68866039D01*
X62610055Y-68852366D01*
X62611519Y-68851402D01*
X62673428Y-68789491D01*
X62675597Y-68787377D01*
X62739053Y-68727059D01*
X62740061Y-68725609D01*
X62754151Y-68708768D01*
X63181409Y-68281510D01*
X63183578Y-68279395D01*
X63247053Y-68219059D01*
X63280766Y-68170619D01*
X63286405Y-68163141D01*
X63323697Y-68117408D01*
X63337786Y-68090433D01*
X63345908Y-68077027D01*
X63363295Y-68052049D01*
X63386568Y-67997815D01*
X63390595Y-67989336D01*
X63417909Y-67937049D01*
X63426275Y-67907808D01*
X63431544Y-67893009D01*
X63443538Y-67865062D01*
X63443540Y-67865058D01*
X63455421Y-67807238D01*
X63457655Y-67798136D01*
X63473886Y-67741418D01*
X63476195Y-67711089D01*
X63478376Y-67695536D01*
X63484500Y-67665741D01*
X63484500Y-67606744D01*
X63484858Y-67597330D01*
X63485283Y-67591749D01*
X63489336Y-67538524D01*
X63485493Y-67508345D01*
X63484500Y-67492682D01*
X63484500Y-56838782D01*
X63504185Y-56771743D01*
X63520814Y-56751105D01*
X64534031Y-55737888D01*
X64595352Y-55704405D01*
X64610896Y-55702044D01*
X64736408Y-55691063D01*
X64964663Y-55629903D01*
X65178830Y-55530035D01*
X65372401Y-55394495D01*
X65539495Y-55227401D01*
X65669425Y-55041842D01*
X65724002Y-54998217D01*
X65793500Y-54991023D01*
X65855855Y-55022546D01*
G37*
%TD.AperFunction*%
%TA.AperFunction,Conductor*%
G36*
X82048894Y-67675618D02*
G01*
X82049842Y-67674111D01*
X82055737Y-67677815D01*
X82055738Y-67677816D01*
X82062599Y-67682127D01*
X82169472Y-67749280D01*
X82215763Y-67801615D01*
X82227500Y-67854274D01*
X82227500Y-68318001D01*
X82227501Y-68318019D01*
X82238000Y-68420796D01*
X82238001Y-68420799D01*
X82293185Y-68587331D01*
X82293187Y-68587336D01*
X82311696Y-68617344D01*
X82385288Y-68736656D01*
X82509344Y-68860712D01*
X82658666Y-68952814D01*
X82825203Y-69007999D01*
X82927991Y-69018500D01*
X83728008Y-69018499D01*
X83728016Y-69018498D01*
X83728019Y-69018498D01*
X83784302Y-69012748D01*
X83830797Y-69007999D01*
X83948394Y-68969030D01*
X84018219Y-68966629D01*
X84075077Y-68999056D01*
X84339055Y-69263034D01*
X84349749Y-69275228D01*
X84368974Y-69300282D01*
X84457492Y-69368204D01*
X84494415Y-69396536D01*
X84494417Y-69396536D01*
X84494419Y-69396538D01*
X84548378Y-69418888D01*
X84640494Y-69457044D01*
X84765948Y-69473561D01*
X84797255Y-69477683D01*
X84797256Y-69477683D01*
X84797257Y-69477683D01*
X84828564Y-69473561D01*
X84844750Y-69472500D01*
X85227852Y-69472500D01*
X85294891Y-69492185D01*
X85340646Y-69544989D01*
X85350590Y-69614147D01*
X85344034Y-69639833D01*
X85319908Y-69704517D01*
X85315188Y-69748425D01*
X85313501Y-69764123D01*
X85313500Y-69764135D01*
X85313500Y-69887500D01*
X85293815Y-69954539D01*
X85241011Y-70000294D01*
X85189500Y-70011500D01*
X82088097Y-70011500D01*
X82021058Y-69991815D01*
X82000416Y-69975181D01*
X81416677Y-69391442D01*
X81383192Y-69330119D01*
X81388176Y-69260427D01*
X81430048Y-69204494D01*
X81439243Y-69198234D01*
X81574656Y-69114712D01*
X81698712Y-68990656D01*
X81790814Y-68841334D01*
X81845999Y-68674797D01*
X81856500Y-68572009D01*
X81856499Y-67776415D01*
X81876183Y-67709377D01*
X81928987Y-67663622D01*
X81998146Y-67653678D01*
X82048894Y-67675618D01*
G37*
%TD.AperFunction*%
%TA.AperFunction,Conductor*%
G36*
X77080941Y-67250184D02*
G01*
X77101583Y-67266818D01*
X77619181Y-67784416D01*
X77652666Y-67845739D01*
X77655500Y-67872097D01*
X77655500Y-68251903D01*
X77635815Y-68318942D01*
X77583011Y-68364697D01*
X77513853Y-68374641D01*
X77450297Y-68345616D01*
X77443819Y-68339584D01*
X77293199Y-68188964D01*
X77282503Y-68176767D01*
X77263286Y-68151722D01*
X77263283Y-68151720D01*
X77263282Y-68151718D01*
X77137841Y-68055464D01*
X77129596Y-68052049D01*
X77095054Y-68037741D01*
X76991762Y-67994956D01*
X76971451Y-67992282D01*
X76971450Y-67992281D01*
X76835001Y-67974318D01*
X76835000Y-67974318D01*
X76803697Y-67978439D01*
X76787513Y-67979500D01*
X75180600Y-67979500D01*
X75113561Y-67959815D01*
X75067806Y-67907011D01*
X75056600Y-67855501D01*
X75056599Y-67666629D01*
X75056597Y-67666608D01*
X75051399Y-67618253D01*
X75051399Y-67591747D01*
X75056600Y-67543373D01*
X75056599Y-67354498D01*
X75076283Y-67287460D01*
X75129087Y-67241705D01*
X75180599Y-67230499D01*
X77013902Y-67230499D01*
X77080941Y-67250184D01*
G37*
%TD.AperFunction*%
%TA.AperFunction,Conductor*%
G36*
X89529887Y-63270185D02*
G01*
X89575642Y-63322989D01*
X89586375Y-63385305D01*
X89578835Y-63471492D01*
X89576341Y-63499999D01*
X89576341Y-63500000D01*
X89596936Y-63735403D01*
X89596938Y-63735413D01*
X89658094Y-63963655D01*
X89658096Y-63963659D01*
X89658097Y-63963663D01*
X89693451Y-64039480D01*
X89757965Y-64177830D01*
X89757967Y-64177834D01*
X89866281Y-64332521D01*
X89893501Y-64371396D01*
X89893506Y-64371402D01*
X90060597Y-64538493D01*
X90060603Y-64538498D01*
X90246158Y-64668425D01*
X90289783Y-64723002D01*
X90296977Y-64792500D01*
X90265454Y-64854855D01*
X90246158Y-64871575D01*
X90060597Y-65001505D01*
X89893505Y-65168597D01*
X89757965Y-65362169D01*
X89757964Y-65362171D01*
X89658098Y-65576335D01*
X89658094Y-65576344D01*
X89596938Y-65804586D01*
X89596936Y-65804596D01*
X89576341Y-66039999D01*
X89576341Y-66040000D01*
X89596936Y-66275403D01*
X89596938Y-66275413D01*
X89658094Y-66503655D01*
X89658096Y-66503659D01*
X89658097Y-66503663D01*
X89693927Y-66580500D01*
X89757965Y-66717830D01*
X89757967Y-66717834D01*
X89850409Y-66849854D01*
X89893501Y-66911396D01*
X89893506Y-66911402D01*
X90015430Y-67033326D01*
X90048915Y-67094649D01*
X90043931Y-67164341D01*
X90002059Y-67220274D01*
X89971083Y-67237189D01*
X89839669Y-67286203D01*
X89839664Y-67286206D01*
X89724455Y-67372452D01*
X89724452Y-67372455D01*
X89638206Y-67487664D01*
X89638202Y-67487671D01*
X89587908Y-67622517D01*
X89581501Y-67682116D01*
X89581500Y-67682135D01*
X89581500Y-68147500D01*
X89561815Y-68214539D01*
X89509011Y-68260294D01*
X89457500Y-68271500D01*
X86552500Y-68271500D01*
X86485461Y-68251815D01*
X86439706Y-68199011D01*
X86428500Y-68147500D01*
X86428499Y-67317998D01*
X86428498Y-67317980D01*
X86417999Y-67215203D01*
X86417998Y-67215200D01*
X86410865Y-67193675D01*
X86362814Y-67048666D01*
X86355828Y-67037341D01*
X86337388Y-66969949D01*
X86358310Y-66903286D01*
X86411952Y-66858516D01*
X86481282Y-66849854D01*
X86504700Y-66856062D01*
X86641517Y-66907091D01*
X86641516Y-66907091D01*
X86648444Y-66907835D01*
X86701127Y-66913500D01*
X87796872Y-66913499D01*
X87856483Y-66907091D01*
X87991331Y-66856796D01*
X88106546Y-66770546D01*
X88192796Y-66655331D01*
X88243091Y-66520483D01*
X88249500Y-66460873D01*
X88249499Y-65365128D01*
X88243091Y-65305517D01*
X88241427Y-65301056D01*
X88192797Y-65170671D01*
X88192793Y-65170664D01*
X88106547Y-65055455D01*
X88106544Y-65055452D01*
X87991335Y-64969206D01*
X87991328Y-64969202D01*
X87856482Y-64918908D01*
X87856483Y-64918908D01*
X87796883Y-64912501D01*
X87796881Y-64912500D01*
X87796873Y-64912500D01*
X87796864Y-64912500D01*
X86701129Y-64912500D01*
X86701123Y-64912501D01*
X86641515Y-64918909D01*
X86504699Y-64969937D01*
X86435007Y-64974921D01*
X86373685Y-64941435D01*
X86340200Y-64880112D01*
X86345186Y-64810420D01*
X86355825Y-64788664D01*
X86362814Y-64777334D01*
X86417999Y-64610797D01*
X86428500Y-64508009D01*
X86428499Y-63507992D01*
X86417999Y-63405203D01*
X86417997Y-63405199D01*
X86416983Y-63400455D01*
X86422199Y-63330781D01*
X86464256Y-63274987D01*
X86529801Y-63250787D01*
X86538236Y-63250500D01*
X89462848Y-63250500D01*
X89529887Y-63270185D01*
G37*
%TD.AperFunction*%
%TA.AperFunction,Conductor*%
G36*
X55125942Y-67510185D02*
G01*
X55171697Y-67562989D01*
X55181641Y-67632147D01*
X55152616Y-67695703D01*
X55146584Y-67702181D01*
X54905584Y-67943181D01*
X54844261Y-67976666D01*
X54817903Y-67979500D01*
X52089091Y-67979500D01*
X52022052Y-67959815D01*
X51976711Y-67907909D01*
X51974037Y-67902175D01*
X51974034Y-67902170D01*
X51974033Y-67902169D01*
X51838495Y-67708599D01*
X51838493Y-67708596D01*
X51832078Y-67702181D01*
X51798593Y-67640858D01*
X51803577Y-67571166D01*
X51845449Y-67515233D01*
X51910913Y-67490816D01*
X51919759Y-67490500D01*
X55058903Y-67490500D01*
X55125942Y-67510185D01*
G37*
%TD.AperFunction*%
%TA.AperFunction,Conductor*%
G36*
X51730088Y-64567442D02*
G01*
X51782238Y-64589044D01*
X51860619Y-64599363D01*
X51938999Y-64609682D01*
X51939000Y-64609682D01*
X51970302Y-64605560D01*
X51986487Y-64604500D01*
X54567250Y-64604500D01*
X54634289Y-64624185D01*
X54680044Y-64676989D01*
X54689988Y-64746147D01*
X54687025Y-64760593D01*
X54673452Y-64811247D01*
X54673450Y-64811258D01*
X54654838Y-65023998D01*
X54654838Y-65024001D01*
X54673450Y-65236741D01*
X54673452Y-65236752D01*
X54728721Y-65443022D01*
X54728723Y-65443026D01*
X54728724Y-65443030D01*
X54771171Y-65534058D01*
X54818977Y-65636578D01*
X54941472Y-65811521D01*
X55092478Y-65962527D01*
X55092481Y-65962529D01*
X55218360Y-66050670D01*
X55237291Y-66063925D01*
X55280916Y-66118501D01*
X55288110Y-66188000D01*
X55256588Y-66250355D01*
X55196358Y-66285769D01*
X55166168Y-66289500D01*
X52269152Y-66289500D01*
X52202113Y-66269815D01*
X52156358Y-66217011D01*
X52145624Y-66154694D01*
X52155659Y-66040000D01*
X52135063Y-65804592D01*
X52073903Y-65576337D01*
X51974035Y-65362171D01*
X51951566Y-65330081D01*
X51838494Y-65168597D01*
X51671402Y-65001506D01*
X51671401Y-65001505D01*
X51485842Y-64871575D01*
X51485841Y-64871574D01*
X51442216Y-64816997D01*
X51435024Y-64747498D01*
X51466546Y-64685144D01*
X51485831Y-64668432D01*
X51611514Y-64580426D01*
X51677718Y-64558101D01*
X51730088Y-64567442D01*
G37*
%TD.AperFunction*%
%TA.AperFunction,Conductor*%
G36*
X88776532Y-49776648D02*
G01*
X89110429Y-49793052D01*
X89122537Y-49794245D01*
X89225646Y-49809539D01*
X89450199Y-49842849D01*
X89462117Y-49845219D01*
X89783451Y-49925709D01*
X89795088Y-49929240D01*
X89866306Y-49954722D01*
X90106967Y-50040832D01*
X90118188Y-50045479D01*
X90417663Y-50187120D01*
X90428371Y-50192844D01*
X90712488Y-50363137D01*
X90722606Y-50369897D01*
X90988670Y-50567224D01*
X90998076Y-50574944D01*
X91243513Y-50797395D01*
X91252104Y-50805986D01*
X91439255Y-51012475D01*
X91474555Y-51051423D01*
X91482275Y-51060829D01*
X91679602Y-51326893D01*
X91686362Y-51337011D01*
X91823612Y-51566000D01*
X91856648Y-51621116D01*
X91862383Y-51631844D01*
X91949482Y-51816000D01*
X92004014Y-51931297D01*
X92008670Y-51942540D01*
X92120259Y-52254411D01*
X92123792Y-52266055D01*
X92204277Y-52587369D01*
X92206651Y-52599305D01*
X92255254Y-52926962D01*
X92256447Y-52939071D01*
X92272851Y-53272966D01*
X92273000Y-53279051D01*
X92273000Y-62667343D01*
X92253315Y-62734382D01*
X92200511Y-62780137D01*
X92131353Y-62790081D01*
X92067797Y-62761056D01*
X92047425Y-62738466D01*
X91970494Y-62628597D01*
X91803402Y-62461506D01*
X91803395Y-62461501D01*
X91781764Y-62446355D01*
X91665618Y-62365028D01*
X91609834Y-62325967D01*
X91609830Y-62325965D01*
X91395663Y-62226097D01*
X91395659Y-62226096D01*
X91395655Y-62226094D01*
X91167413Y-62164938D01*
X91167403Y-62164936D01*
X90932001Y-62144341D01*
X90931999Y-62144341D01*
X90696596Y-62164936D01*
X90696583Y-62164939D01*
X90562719Y-62200806D01*
X90492869Y-62199143D01*
X90455141Y-62179407D01*
X90436286Y-62164939D01*
X90384841Y-62125464D01*
X90384838Y-62125462D01*
X90384837Y-62125462D01*
X90238762Y-62064956D01*
X90238760Y-62064955D01*
X90121361Y-62049500D01*
X90082000Y-62044318D01*
X90050697Y-62048439D01*
X90034513Y-62049500D01*
X84733487Y-62049500D01*
X84717302Y-62048439D01*
X84686000Y-62044318D01*
X84646639Y-62049500D01*
X84529239Y-62064955D01*
X84529237Y-62064956D01*
X84383157Y-62125464D01*
X84257718Y-62221716D01*
X84238489Y-62246775D01*
X84227798Y-62258965D01*
X83715582Y-62771181D01*
X83654259Y-62804666D01*
X83627901Y-62807500D01*
X82927998Y-62807500D01*
X82927980Y-62807501D01*
X82825203Y-62818000D01*
X82825200Y-62818001D01*
X82658668Y-62873185D01*
X82658663Y-62873187D01*
X82509342Y-62965289D01*
X82395951Y-63078681D01*
X82334628Y-63112166D01*
X82308270Y-63115000D01*
X81154000Y-63115000D01*
X81086961Y-63095315D01*
X81041206Y-63042511D01*
X81030000Y-62991000D01*
X81030000Y-61210000D01*
X81530000Y-61210000D01*
X81530000Y-62615000D01*
X82379999Y-62615000D01*
X82379999Y-62365028D01*
X82379998Y-62365013D01*
X82369505Y-62262302D01*
X82314358Y-62095880D01*
X82314356Y-62095875D01*
X82241401Y-61977597D01*
X82222961Y-61910205D01*
X82241401Y-61847403D01*
X82314356Y-61729124D01*
X82314358Y-61729119D01*
X82369505Y-61562697D01*
X82369506Y-61562690D01*
X82379999Y-61459986D01*
X82380000Y-61459973D01*
X82380000Y-61210000D01*
X81530000Y-61210000D01*
X81030000Y-61210000D01*
X81030000Y-60154107D01*
X81016834Y-60129996D01*
X81014000Y-60103638D01*
X81014000Y-59178000D01*
X81514000Y-59178000D01*
X81514000Y-59733892D01*
X81527166Y-59758004D01*
X81530000Y-59784362D01*
X81530000Y-60710000D01*
X82379999Y-60710000D01*
X82379999Y-60460028D01*
X82379998Y-60460013D01*
X82369505Y-60357302D01*
X82314358Y-60190880D01*
X82314356Y-60190875D01*
X82222315Y-60041654D01*
X82204342Y-60023681D01*
X82170857Y-59962358D01*
X82172170Y-59944001D01*
X83610838Y-59944001D01*
X83629450Y-60156741D01*
X83629452Y-60156752D01*
X83684721Y-60363022D01*
X83684723Y-60363026D01*
X83684724Y-60363030D01*
X83727171Y-60454058D01*
X83774977Y-60556578D01*
X83897472Y-60731521D01*
X84048478Y-60882527D01*
X84048481Y-60882529D01*
X84223419Y-61005021D01*
X84223421Y-61005022D01*
X84223420Y-61005022D01*
X84275802Y-61029448D01*
X84416970Y-61095276D01*
X84416976Y-61095277D01*
X84416977Y-61095278D01*
X84425546Y-61097574D01*
X84623253Y-61150549D01*
X84775215Y-61163844D01*
X84835998Y-61169162D01*
X84836000Y-61169162D01*
X84836002Y-61169162D01*
X84889186Y-61164508D01*
X85048747Y-61150549D01*
X85255030Y-61095276D01*
X85448581Y-61005021D01*
X85623519Y-60882529D01*
X85774529Y-60731519D01*
X85897021Y-60556581D01*
X85987276Y-60363030D01*
X86042549Y-60156747D01*
X86061162Y-59944000D01*
X86042549Y-59731253D01*
X85987276Y-59524970D01*
X85897021Y-59331419D01*
X85774529Y-59156481D01*
X85774527Y-59156478D01*
X85623521Y-59005472D01*
X85489377Y-58911544D01*
X85445752Y-58856967D01*
X85436500Y-58809969D01*
X85436500Y-58538031D01*
X85456185Y-58470992D01*
X85489377Y-58436456D01*
X85583419Y-58370607D01*
X85623519Y-58342529D01*
X85774529Y-58191519D01*
X85897021Y-58016581D01*
X85987276Y-57823030D01*
X86042549Y-57616747D01*
X86061162Y-57404000D01*
X86042549Y-57191253D01*
X85987276Y-56984970D01*
X85897021Y-56791419D01*
X85774529Y-56616481D01*
X85774527Y-56616478D01*
X85623521Y-56465472D01*
X85448578Y-56342977D01*
X85448579Y-56342977D01*
X85294776Y-56271258D01*
X85255030Y-56252724D01*
X85255023Y-56252722D01*
X85249936Y-56250870D01*
X85250606Y-56249028D01*
X85198293Y-56217114D01*
X85167789Y-56154255D01*
X85176111Y-56084883D01*
X85220617Y-56031022D01*
X85250097Y-56017574D01*
X85249764Y-56016658D01*
X85254864Y-56014801D01*
X85448325Y-55924589D01*
X85504030Y-55885583D01*
X84880401Y-55261953D01*
X84961148Y-55249165D01*
X85074045Y-55191641D01*
X85163641Y-55102045D01*
X85221165Y-54989148D01*
X85233953Y-54908400D01*
X85857583Y-55532029D01*
X85896589Y-55476325D01*
X85986801Y-55282864D01*
X85986805Y-55282853D01*
X86042054Y-55076662D01*
X86042055Y-55076654D01*
X86060660Y-54864002D01*
X86060660Y-54863997D01*
X86042055Y-54651345D01*
X86042054Y-54651337D01*
X85986805Y-54445146D01*
X85986802Y-54445140D01*
X85896586Y-54251669D01*
X85896582Y-54251663D01*
X85857584Y-54195968D01*
X85233953Y-54819599D01*
X85221165Y-54738852D01*
X85163641Y-54625955D01*
X85074045Y-54536359D01*
X84961148Y-54478835D01*
X84880400Y-54466046D01*
X85504030Y-53842415D01*
X85448329Y-53803413D01*
X85254859Y-53713197D01*
X85254853Y-53713194D01*
X85048662Y-53657945D01*
X85048654Y-53657944D01*
X84836002Y-53639340D01*
X84835998Y-53639340D01*
X84623345Y-53657944D01*
X84623337Y-53657945D01*
X84417146Y-53713194D01*
X84417140Y-53713197D01*
X84223671Y-53803412D01*
X84223669Y-53803413D01*
X84167969Y-53842415D01*
X84167968Y-53842415D01*
X84791600Y-54466046D01*
X84710852Y-54478835D01*
X84597955Y-54536359D01*
X84508359Y-54625955D01*
X84450835Y-54738852D01*
X84438046Y-54819599D01*
X83814415Y-54195968D01*
X83814415Y-54195969D01*
X83775413Y-54251669D01*
X83775412Y-54251671D01*
X83685197Y-54445140D01*
X83685194Y-54445146D01*
X83629945Y-54651337D01*
X83629944Y-54651345D01*
X83611340Y-54863997D01*
X83611340Y-54864002D01*
X83629944Y-55076654D01*
X83629945Y-55076662D01*
X83685194Y-55282853D01*
X83685197Y-55282859D01*
X83775413Y-55476329D01*
X83814415Y-55532030D01*
X84438046Y-54908399D01*
X84450835Y-54989148D01*
X84508359Y-55102045D01*
X84597955Y-55191641D01*
X84710852Y-55249165D01*
X84791599Y-55261953D01*
X84167968Y-55885584D01*
X84223663Y-55924582D01*
X84223669Y-55924586D01*
X84417140Y-56014802D01*
X84422236Y-56016658D01*
X84421542Y-56018563D01*
X84473647Y-56050302D01*
X84504196Y-56113139D01*
X84495922Y-56182518D01*
X84451454Y-56236409D01*
X84421744Y-56249991D01*
X84422064Y-56250870D01*
X84416972Y-56252723D01*
X84416970Y-56252724D01*
X84416968Y-56252725D01*
X84223421Y-56342977D01*
X84048478Y-56465472D01*
X83897472Y-56616478D01*
X83774977Y-56791421D01*
X83684725Y-56984968D01*
X83684721Y-56984977D01*
X83629452Y-57191247D01*
X83629450Y-57191258D01*
X83610838Y-57403998D01*
X83610838Y-57404001D01*
X83629450Y-57616741D01*
X83629452Y-57616752D01*
X83684721Y-57823022D01*
X83684723Y-57823026D01*
X83684724Y-57823030D01*
X83713756Y-57885288D01*
X83774977Y-58016578D01*
X83897472Y-58191521D01*
X84048478Y-58342527D01*
X84182623Y-58436456D01*
X84226248Y-58491033D01*
X84235500Y-58538031D01*
X84235500Y-58809969D01*
X84215815Y-58877008D01*
X84182623Y-58911544D01*
X84048478Y-59005472D01*
X83897472Y-59156478D01*
X83774977Y-59331421D01*
X83684725Y-59524968D01*
X83684721Y-59524977D01*
X83629452Y-59731247D01*
X83629450Y-59731258D01*
X83610838Y-59943998D01*
X83610838Y-59944001D01*
X82172170Y-59944001D01*
X82175841Y-59892666D01*
X82201927Y-59852076D01*
X82201839Y-59852007D01*
X82202548Y-59851110D01*
X82204342Y-59848319D01*
X82206315Y-59846345D01*
X82298356Y-59697124D01*
X82298358Y-59697119D01*
X82353505Y-59530697D01*
X82353506Y-59530690D01*
X82363999Y-59427986D01*
X82364000Y-59427973D01*
X82364000Y-59178000D01*
X81514000Y-59178000D01*
X81014000Y-59178000D01*
X81014000Y-57728000D01*
X81514000Y-57728000D01*
X81514000Y-58678000D01*
X82363999Y-58678000D01*
X82363999Y-58428028D01*
X82363998Y-58428013D01*
X82353505Y-58325302D01*
X82298358Y-58158880D01*
X82298356Y-58158875D01*
X82206315Y-58009654D01*
X82082345Y-57885684D01*
X81933124Y-57793643D01*
X81933119Y-57793641D01*
X81766697Y-57738494D01*
X81766690Y-57738493D01*
X81663986Y-57728000D01*
X81514000Y-57728000D01*
X81014000Y-57728000D01*
X80864027Y-57728000D01*
X80864012Y-57728001D01*
X80761302Y-57738494D01*
X80594880Y-57793641D01*
X80594875Y-57793643D01*
X80445657Y-57885682D01*
X80352034Y-57979305D01*
X80290710Y-58012789D01*
X80221019Y-58007805D01*
X80176672Y-57979304D01*
X80082657Y-57885289D01*
X80082656Y-57885288D01*
X79933334Y-57793186D01*
X79766797Y-57738001D01*
X79766795Y-57738000D01*
X79664010Y-57727500D01*
X78863998Y-57727500D01*
X78863980Y-57727501D01*
X78761203Y-57738000D01*
X78761200Y-57738001D01*
X78594668Y-57793185D01*
X78594663Y-57793187D01*
X78445342Y-57885289D01*
X78321289Y-58009342D01*
X78229187Y-58158663D01*
X78229185Y-58158668D01*
X78218299Y-58191521D01*
X78174001Y-58325203D01*
X78174001Y-58325204D01*
X78174000Y-58325204D01*
X78163500Y-58427983D01*
X78163500Y-59428001D01*
X78163501Y-59428019D01*
X78174000Y-59530796D01*
X78174001Y-59530799D01*
X78229185Y-59697331D01*
X78229188Y-59697337D01*
X78229412Y-59697700D01*
X78229489Y-59697982D01*
X78232240Y-59703882D01*
X78231232Y-59704351D01*
X78247853Y-59765092D01*
X78226931Y-59831756D01*
X78173290Y-59876526D01*
X78103960Y-59885188D01*
X78084873Y-59880505D01*
X78060699Y-59872495D01*
X78060690Y-59872493D01*
X77957986Y-59862000D01*
X77908000Y-59862000D01*
X77908000Y-61213000D01*
X77888315Y-61280039D01*
X77835511Y-61325794D01*
X77784000Y-61337000D01*
X77532000Y-61337000D01*
X77464961Y-61317315D01*
X77419206Y-61264511D01*
X77408000Y-61213000D01*
X77408000Y-59862000D01*
X77407999Y-59861999D01*
X77358029Y-59862000D01*
X77358011Y-59862001D01*
X77255302Y-59872494D01*
X77088880Y-59927641D01*
X77088875Y-59927643D01*
X76939654Y-60019684D01*
X76815683Y-60143655D01*
X76815679Y-60143660D01*
X76813826Y-60146665D01*
X76812018Y-60148290D01*
X76811202Y-60149323D01*
X76811025Y-60149183D01*
X76761874Y-60193385D01*
X76692911Y-60204601D01*
X76628831Y-60176752D01*
X76602753Y-60146653D01*
X76602737Y-60146628D01*
X76600712Y-60143344D01*
X76476656Y-60019288D01*
X76354594Y-59944000D01*
X76327336Y-59927187D01*
X76327331Y-59927185D01*
X76261440Y-59905351D01*
X76160797Y-59872001D01*
X76160795Y-59872000D01*
X76058010Y-59861500D01*
X75457998Y-59861500D01*
X75457980Y-59861501D01*
X75355203Y-59872000D01*
X75355200Y-59872001D01*
X75213594Y-59918925D01*
X75143765Y-59921327D01*
X75083724Y-59885595D01*
X75052531Y-59823074D01*
X75051301Y-59787961D01*
X75056099Y-59743340D01*
X75056100Y-59743328D01*
X75056100Y-59695501D01*
X75046401Y-59685802D01*
X75012391Y-59675816D01*
X74980165Y-59645813D01*
X74913646Y-59556956D01*
X74878705Y-59530799D01*
X74821222Y-59487767D01*
X74779352Y-59431833D01*
X74774368Y-59362142D01*
X74807854Y-59300819D01*
X74869177Y-59267334D01*
X74895534Y-59264501D01*
X75056100Y-59264501D01*
X75056100Y-59216673D01*
X75056099Y-59216656D01*
X75049698Y-59157128D01*
X75049696Y-59157121D01*
X74999454Y-59022414D01*
X74999450Y-59022407D01*
X74913290Y-58907313D01*
X74913287Y-58907310D01*
X74798193Y-58821150D01*
X74798186Y-58821146D01*
X74663479Y-58770904D01*
X74663472Y-58770902D01*
X74603944Y-58764501D01*
X73875500Y-58764501D01*
X73875500Y-59290002D01*
X73855815Y-59357041D01*
X73803011Y-59402796D01*
X73751500Y-59414002D01*
X73568500Y-59414002D01*
X73501461Y-59394317D01*
X73455706Y-59341513D01*
X73444500Y-59290002D01*
X73444500Y-58764501D01*
X72752500Y-58764501D01*
X72685461Y-58744816D01*
X72639706Y-58692012D01*
X72628500Y-58640501D01*
X72628500Y-55067277D01*
X72628540Y-55064135D01*
X72630757Y-54976641D01*
X72630756Y-54976640D01*
X72630757Y-54976637D01*
X72620349Y-54918573D01*
X72619041Y-54909242D01*
X72613074Y-54850562D01*
X72603963Y-54821524D01*
X72600226Y-54806301D01*
X72594858Y-54776347D01*
X72572974Y-54721562D01*
X72569822Y-54712709D01*
X72552159Y-54656412D01*
X72552158Y-54656411D01*
X72552157Y-54656406D01*
X72537396Y-54629814D01*
X72530659Y-54615629D01*
X72519378Y-54587385D01*
X72519374Y-54587378D01*
X72486922Y-54538138D01*
X72482039Y-54530079D01*
X72474685Y-54516831D01*
X72453409Y-54478498D01*
X72433585Y-54455406D01*
X72424139Y-54442877D01*
X72407401Y-54417480D01*
X72365699Y-54375779D01*
X72359306Y-54368882D01*
X72320866Y-54324105D01*
X72296800Y-54305476D01*
X72285022Y-54295102D01*
X71648567Y-53658647D01*
X71646374Y-53656398D01*
X71586061Y-53592949D01*
X71586060Y-53592948D01*
X71586059Y-53592947D01*
X71537640Y-53559246D01*
X71530120Y-53553575D01*
X71484413Y-53516305D01*
X71484406Y-53516301D01*
X71457441Y-53502216D01*
X71444026Y-53494089D01*
X71419049Y-53476705D01*
X71419046Y-53476703D01*
X71419045Y-53476703D01*
X71419041Y-53476701D01*
X71364845Y-53453443D01*
X71356336Y-53449402D01*
X71304057Y-53422094D01*
X71304046Y-53422090D01*
X71274806Y-53413723D01*
X71260021Y-53408459D01*
X71232058Y-53396459D01*
X71174273Y-53384583D01*
X71165127Y-53382338D01*
X71108423Y-53366113D01*
X71084699Y-53364306D01*
X71078072Y-53363801D01*
X71062533Y-53361622D01*
X71032742Y-53355500D01*
X71032741Y-53355500D01*
X70995142Y-53355500D01*
X70928103Y-53335815D01*
X70882348Y-53283011D01*
X70878960Y-53274833D01*
X70874795Y-53263667D01*
X70874794Y-53263666D01*
X70788547Y-53148455D01*
X70788544Y-53148452D01*
X70673335Y-53062206D01*
X70673328Y-53062202D01*
X70538482Y-53011908D01*
X70538483Y-53011908D01*
X70478883Y-53005501D01*
X70478881Y-53005500D01*
X70478873Y-53005500D01*
X70478864Y-53005500D01*
X68683129Y-53005500D01*
X68683123Y-53005501D01*
X68623516Y-53011908D01*
X68488671Y-53062202D01*
X68488664Y-53062206D01*
X68373455Y-53148452D01*
X68373452Y-53148455D01*
X68287206Y-53263664D01*
X68287203Y-53263669D01*
X68238189Y-53395083D01*
X68196317Y-53451016D01*
X68130853Y-53475433D01*
X68062580Y-53460581D01*
X68034326Y-53439430D01*
X67912402Y-53317506D01*
X67912395Y-53317501D01*
X67718834Y-53181967D01*
X67718830Y-53181965D01*
X67700402Y-53173372D01*
X67504663Y-53082097D01*
X67504659Y-53082096D01*
X67504655Y-53082094D01*
X67276413Y-53020938D01*
X67276403Y-53020936D01*
X67041001Y-53000341D01*
X67040999Y-53000341D01*
X66805596Y-53020936D01*
X66805586Y-53020938D01*
X66577344Y-53082094D01*
X66577335Y-53082098D01*
X66363171Y-53181964D01*
X66363169Y-53181965D01*
X66169597Y-53317505D01*
X66002505Y-53484597D01*
X65872575Y-53670158D01*
X65817998Y-53713783D01*
X65748500Y-53720977D01*
X65686145Y-53689454D01*
X65669425Y-53670158D01*
X65539494Y-53484597D01*
X65372402Y-53317506D01*
X65372395Y-53317501D01*
X65178834Y-53181967D01*
X65178830Y-53181965D01*
X65160402Y-53173372D01*
X64964663Y-53082097D01*
X64964659Y-53082096D01*
X64964655Y-53082094D01*
X64736413Y-53020938D01*
X64736403Y-53020936D01*
X64501001Y-53000341D01*
X64500999Y-53000341D01*
X64265596Y-53020936D01*
X64265586Y-53020938D01*
X64037344Y-53082094D01*
X64037335Y-53082098D01*
X63823171Y-53181964D01*
X63823169Y-53181965D01*
X63629597Y-53317505D01*
X63462505Y-53484597D01*
X63326965Y-53678169D01*
X63326964Y-53678171D01*
X63227098Y-53892335D01*
X63227094Y-53892344D01*
X63165938Y-54120586D01*
X63165936Y-54120596D01*
X63154955Y-54246098D01*
X63129502Y-54311166D01*
X63119108Y-54322970D01*
X61786646Y-55655432D01*
X61784399Y-55657624D01*
X61720946Y-55717942D01*
X61687245Y-55766361D01*
X61681574Y-55773882D01*
X61644302Y-55819592D01*
X61644298Y-55819598D01*
X61630209Y-55846568D01*
X61622082Y-55859983D01*
X61604702Y-55884955D01*
X61581438Y-55939165D01*
X61577398Y-55947672D01*
X61550090Y-55999951D01*
X61550090Y-55999952D01*
X61541720Y-56029201D01*
X61536459Y-56043979D01*
X61524459Y-56071943D01*
X61512588Y-56129711D01*
X61510342Y-56138860D01*
X61494113Y-56195577D01*
X61491802Y-56225926D01*
X61489622Y-56241466D01*
X61483500Y-56271258D01*
X61483500Y-56330240D01*
X61483142Y-56339656D01*
X61478662Y-56398474D01*
X61482506Y-56428649D01*
X61483500Y-56444317D01*
X61483500Y-58678550D01*
X61463815Y-58745589D01*
X61411011Y-58791344D01*
X61341853Y-58801288D01*
X61316168Y-58794732D01*
X61252283Y-58770904D01*
X61252272Y-58770902D01*
X61192744Y-58764501D01*
X60464300Y-58764501D01*
X60464300Y-59290002D01*
X60444615Y-59357041D01*
X60391811Y-59402796D01*
X60340300Y-59414002D01*
X60157300Y-59414002D01*
X60090261Y-59394317D01*
X60044506Y-59341513D01*
X60033300Y-59290002D01*
X60033300Y-58764501D01*
X59652500Y-58764501D01*
X59585461Y-58744816D01*
X59539706Y-58692012D01*
X59528500Y-58640501D01*
X59528500Y-58486790D01*
X59548185Y-58419751D01*
X59600989Y-58373996D01*
X59609146Y-58370616D01*
X59670331Y-58347796D01*
X59785546Y-58261546D01*
X59871796Y-58146331D01*
X59922091Y-58011483D01*
X59928500Y-57951873D01*
X59928499Y-56856128D01*
X59922091Y-56796517D01*
X59920190Y-56791421D01*
X59871797Y-56661671D01*
X59871793Y-56661664D01*
X59785547Y-56546455D01*
X59785544Y-56546452D01*
X59670335Y-56460206D01*
X59670328Y-56460202D01*
X59535482Y-56409908D01*
X59535483Y-56409908D01*
X59475883Y-56403501D01*
X59475881Y-56403500D01*
X59475873Y-56403500D01*
X59475864Y-56403500D01*
X58380129Y-56403500D01*
X58380123Y-56403501D01*
X58320516Y-56409908D01*
X58185671Y-56460202D01*
X58185664Y-56460206D01*
X58070455Y-56546452D01*
X58070452Y-56546455D01*
X57984206Y-56661664D01*
X57984202Y-56661671D01*
X57933908Y-56796517D01*
X57927501Y-56856116D01*
X57927501Y-56856123D01*
X57927500Y-56856135D01*
X57927500Y-57951870D01*
X57927501Y-57951876D01*
X57933908Y-58011483D01*
X57984202Y-58146328D01*
X57984206Y-58146335D01*
X58070452Y-58261544D01*
X58070455Y-58261547D01*
X58185664Y-58347793D01*
X58185669Y-58347796D01*
X58246833Y-58370608D01*
X58302766Y-58412478D01*
X58327184Y-58477942D01*
X58327500Y-58486790D01*
X58327500Y-61157813D01*
X58326439Y-61173998D01*
X58322318Y-61205299D01*
X58322318Y-61205301D01*
X58327500Y-61244661D01*
X58327500Y-61244662D01*
X58342955Y-61362061D01*
X58342956Y-61362063D01*
X58389680Y-61474866D01*
X58403464Y-61508142D01*
X58470511Y-61595519D01*
X58499719Y-61633584D01*
X58524769Y-61652805D01*
X58536964Y-61663500D01*
X58694500Y-61821036D01*
X58705194Y-61833230D01*
X58724418Y-61858283D01*
X58788072Y-61907126D01*
X58829275Y-61963554D01*
X58833430Y-62033300D01*
X58799218Y-62094220D01*
X58737501Y-62126973D01*
X58712586Y-62129502D01*
X57140364Y-62129502D01*
X57073325Y-62109817D01*
X57027982Y-62057907D01*
X57021645Y-62044318D01*
X56952480Y-61895993D01*
X56941022Y-61871421D01*
X56931823Y-61858284D01*
X56818529Y-61696481D01*
X56818527Y-61696478D01*
X56667521Y-61545472D01*
X56527707Y-61447574D01*
X56492581Y-61422979D01*
X56492580Y-61422978D01*
X56492578Y-61422977D01*
X56492579Y-61422977D01*
X56350206Y-61356588D01*
X56299030Y-61332724D01*
X56299023Y-61332722D01*
X56293936Y-61330870D01*
X56294606Y-61329028D01*
X56242293Y-61297114D01*
X56211789Y-61234255D01*
X56220111Y-61164883D01*
X56264617Y-61111022D01*
X56294097Y-61097574D01*
X56293764Y-61096658D01*
X56298864Y-61094801D01*
X56492325Y-61004589D01*
X56548030Y-60965583D01*
X55924401Y-60341953D01*
X56005148Y-60329165D01*
X56118045Y-60271641D01*
X56207641Y-60182045D01*
X56265165Y-60069148D01*
X56277953Y-59988400D01*
X56901583Y-60612029D01*
X56940589Y-60556325D01*
X57030801Y-60362864D01*
X57030805Y-60362853D01*
X57086054Y-60156662D01*
X57086055Y-60156654D01*
X57104660Y-59944002D01*
X57104660Y-59943997D01*
X57086055Y-59731345D01*
X57086054Y-59731337D01*
X57030805Y-59525146D01*
X57030802Y-59525140D01*
X56940586Y-59331669D01*
X56940582Y-59331663D01*
X56901584Y-59275968D01*
X56277953Y-59899599D01*
X56265165Y-59818852D01*
X56207641Y-59705955D01*
X56118045Y-59616359D01*
X56005148Y-59558835D01*
X55924400Y-59546046D01*
X56548030Y-58922415D01*
X56492329Y-58883413D01*
X56298859Y-58793197D01*
X56298853Y-58793194D01*
X56092662Y-58737945D01*
X56092654Y-58737944D01*
X55880002Y-58719340D01*
X55879998Y-58719340D01*
X55667345Y-58737944D01*
X55667337Y-58737945D01*
X55461146Y-58793194D01*
X55461140Y-58793197D01*
X55267671Y-58883412D01*
X55267669Y-58883413D01*
X55211969Y-58922415D01*
X55211968Y-58922415D01*
X55835600Y-59546046D01*
X55754852Y-59558835D01*
X55641955Y-59616359D01*
X55552359Y-59705955D01*
X55494835Y-59818852D01*
X55482046Y-59899599D01*
X54858415Y-59275968D01*
X54858415Y-59275969D01*
X54819413Y-59331669D01*
X54819412Y-59331671D01*
X54729197Y-59525140D01*
X54729194Y-59525146D01*
X54673945Y-59731337D01*
X54673944Y-59731345D01*
X54655340Y-59943997D01*
X54655340Y-59944002D01*
X54673944Y-60156654D01*
X54673945Y-60156662D01*
X54729194Y-60362853D01*
X54729197Y-60362859D01*
X54819413Y-60556329D01*
X54858415Y-60612030D01*
X55482046Y-59988399D01*
X55494835Y-60069148D01*
X55552359Y-60182045D01*
X55641955Y-60271641D01*
X55754852Y-60329165D01*
X55835599Y-60341953D01*
X55211968Y-60965584D01*
X55267663Y-61004582D01*
X55267669Y-61004586D01*
X55461140Y-61094802D01*
X55466236Y-61096658D01*
X55465542Y-61098563D01*
X55517647Y-61130302D01*
X55548196Y-61193139D01*
X55539922Y-61262518D01*
X55495454Y-61316409D01*
X55465744Y-61329991D01*
X55466064Y-61330870D01*
X55460972Y-61332723D01*
X55460970Y-61332724D01*
X55460968Y-61332725D01*
X55267421Y-61422977D01*
X55092478Y-61545472D01*
X54941472Y-61696478D01*
X54818977Y-61871421D01*
X54728725Y-62064968D01*
X54728721Y-62064977D01*
X54673452Y-62271247D01*
X54673450Y-62271258D01*
X54654838Y-62483998D01*
X54654838Y-62484001D01*
X54673450Y-62696741D01*
X54673452Y-62696752D01*
X54713820Y-62847407D01*
X54712157Y-62917257D01*
X54672994Y-62975119D01*
X54608766Y-63002623D01*
X54594045Y-63003500D01*
X53744097Y-63003500D01*
X53677058Y-62983815D01*
X53656416Y-62967181D01*
X52132766Y-61443531D01*
X52099281Y-61382208D01*
X52100672Y-61323757D01*
X52102641Y-61316409D01*
X52135063Y-61195408D01*
X52155659Y-60960000D01*
X52154684Y-60948861D01*
X52135063Y-60724596D01*
X52135063Y-60724592D01*
X52073903Y-60496337D01*
X51974035Y-60282171D01*
X51903926Y-60182045D01*
X51838496Y-60088600D01*
X51791240Y-60041344D01*
X51716567Y-59966671D01*
X51683084Y-59905351D01*
X51688068Y-59835659D01*
X51729939Y-59779725D01*
X51760915Y-59762810D01*
X51892331Y-59713796D01*
X52007546Y-59627546D01*
X52093796Y-59512331D01*
X52144091Y-59377483D01*
X52150500Y-59317873D01*
X52150499Y-57522128D01*
X52144091Y-57462517D01*
X52093796Y-57327669D01*
X52093795Y-57327668D01*
X52093793Y-57327664D01*
X52007547Y-57212455D01*
X52007544Y-57212452D01*
X51892335Y-57126206D01*
X51892328Y-57126202D01*
X51757482Y-57075908D01*
X51757483Y-57075908D01*
X51697883Y-57069501D01*
X51697881Y-57069500D01*
X51697873Y-57069500D01*
X51697864Y-57069500D01*
X49902129Y-57069500D01*
X49902123Y-57069501D01*
X49842516Y-57075908D01*
X49707671Y-57126202D01*
X49707664Y-57126206D01*
X49592455Y-57212452D01*
X49592452Y-57212455D01*
X49506206Y-57327664D01*
X49506202Y-57327671D01*
X49455908Y-57462517D01*
X49452289Y-57496185D01*
X49425551Y-57560736D01*
X49368159Y-57600584D01*
X49298334Y-57603078D01*
X49238245Y-57567426D01*
X49206970Y-57504946D01*
X49205000Y-57482930D01*
X49205000Y-53279051D01*
X49205149Y-53272967D01*
X49209302Y-53188432D01*
X49221552Y-52939068D01*
X49222745Y-52926962D01*
X49271349Y-52599296D01*
X49273718Y-52587385D01*
X49354210Y-52266043D01*
X49357740Y-52254411D01*
X49469335Y-51942525D01*
X49473976Y-51931318D01*
X49615624Y-51631828D01*
X49621340Y-51621136D01*
X49791645Y-51336998D01*
X49798388Y-51326905D01*
X49995732Y-51060818D01*
X50003435Y-51051433D01*
X50225905Y-50805975D01*
X50234475Y-50797405D01*
X50479933Y-50574935D01*
X50489318Y-50567232D01*
X50755405Y-50369888D01*
X50765498Y-50363145D01*
X51049636Y-50192840D01*
X51060328Y-50187124D01*
X51281542Y-50082497D01*
X51350561Y-50071630D01*
X51414499Y-50099802D01*
X51453057Y-50158069D01*
X51453992Y-50227932D01*
X51433825Y-50268904D01*
X51392647Y-50323910D01*
X51392645Y-50323913D01*
X51342403Y-50458620D01*
X51342401Y-50458627D01*
X51336000Y-50518155D01*
X51336000Y-51566000D01*
X52485272Y-51566000D01*
X52462900Y-51613543D01*
X52432127Y-51774862D01*
X52442439Y-51938766D01*
X52483780Y-52066000D01*
X51336000Y-52066000D01*
X51336000Y-53113844D01*
X51342401Y-53173372D01*
X51342403Y-53173379D01*
X51392645Y-53308086D01*
X51392649Y-53308093D01*
X51478809Y-53423187D01*
X51478812Y-53423190D01*
X51593906Y-53509350D01*
X51593913Y-53509354D01*
X51728620Y-53559596D01*
X51728627Y-53559598D01*
X51788155Y-53565999D01*
X51788172Y-53566000D01*
X52836000Y-53566000D01*
X52836000Y-52420310D01*
X52844817Y-52425158D01*
X53003886Y-52466000D01*
X53126894Y-52466000D01*
X53248933Y-52450583D01*
X53336000Y-52416110D01*
X53336000Y-53566000D01*
X54383828Y-53566000D01*
X54383844Y-53565999D01*
X54443372Y-53559598D01*
X54443379Y-53559596D01*
X54578086Y-53509354D01*
X54578093Y-53509350D01*
X54693187Y-53423190D01*
X54693190Y-53423187D01*
X54779350Y-53308093D01*
X54779354Y-53308086D01*
X54829596Y-53173379D01*
X54829598Y-53173372D01*
X54835999Y-53113844D01*
X54836000Y-53113827D01*
X54836000Y-52066000D01*
X53686728Y-52066000D01*
X53709100Y-52018457D01*
X53739873Y-51857138D01*
X53737285Y-51816004D01*
X56330592Y-51816004D01*
X56350196Y-52077620D01*
X56350197Y-52077625D01*
X56408576Y-52333402D01*
X56408578Y-52333411D01*
X56408580Y-52333416D01*
X56504432Y-52577643D01*
X56635614Y-52804857D01*
X56732990Y-52926962D01*
X56799198Y-53009985D01*
X56948434Y-53148454D01*
X56991521Y-53188433D01*
X57208296Y-53336228D01*
X57208301Y-53336230D01*
X57208302Y-53336231D01*
X57208303Y-53336232D01*
X57304044Y-53382338D01*
X57444673Y-53450061D01*
X57444674Y-53450061D01*
X57444677Y-53450063D01*
X57695385Y-53527396D01*
X57954818Y-53566500D01*
X58217182Y-53566500D01*
X58476615Y-53527396D01*
X58727323Y-53450063D01*
X58963704Y-53336228D01*
X59180479Y-53188433D01*
X59360997Y-53020937D01*
X59372801Y-53009985D01*
X59372801Y-53009983D01*
X59372805Y-53009981D01*
X59536386Y-52804857D01*
X59667568Y-52577643D01*
X59763420Y-52333416D01*
X59821802Y-52077630D01*
X59822674Y-52066000D01*
X59841408Y-51816004D01*
X59841408Y-51815995D01*
X59821803Y-51554379D01*
X59821802Y-51554374D01*
X59821802Y-51554370D01*
X59763420Y-51298584D01*
X59667568Y-51054357D01*
X59536386Y-50827143D01*
X59372805Y-50622019D01*
X59372804Y-50622018D01*
X59372801Y-50622014D01*
X59180479Y-50443567D01*
X59067108Y-50366272D01*
X58963704Y-50295772D01*
X58963700Y-50295770D01*
X58963697Y-50295768D01*
X58963696Y-50295767D01*
X58727325Y-50181938D01*
X58727327Y-50181938D01*
X58476623Y-50104606D01*
X58476619Y-50104605D01*
X58476615Y-50104604D01*
X58351823Y-50085794D01*
X58217187Y-50065500D01*
X58217182Y-50065500D01*
X57954818Y-50065500D01*
X57954812Y-50065500D01*
X57793247Y-50089853D01*
X57695385Y-50104604D01*
X57695382Y-50104605D01*
X57695376Y-50104606D01*
X57444673Y-50181938D01*
X57208303Y-50295767D01*
X57208302Y-50295768D01*
X56991520Y-50443567D01*
X56799198Y-50622014D01*
X56635614Y-50827143D01*
X56504432Y-51054356D01*
X56408582Y-51298578D01*
X56408576Y-51298597D01*
X56350197Y-51554374D01*
X56350196Y-51554379D01*
X56330592Y-51815995D01*
X56330592Y-51816004D01*
X53737285Y-51816004D01*
X53729561Y-51693234D01*
X53688220Y-51566000D01*
X54836000Y-51566000D01*
X54836000Y-50518172D01*
X54835999Y-50518155D01*
X54829598Y-50458627D01*
X54829596Y-50458620D01*
X54779354Y-50323913D01*
X54779350Y-50323906D01*
X54693190Y-50208812D01*
X54693187Y-50208809D01*
X54578093Y-50122649D01*
X54578086Y-50122645D01*
X54443379Y-50072403D01*
X54443372Y-50072401D01*
X54383844Y-50066000D01*
X53336000Y-50066000D01*
X53336000Y-51211689D01*
X53327183Y-51206842D01*
X53168114Y-51166000D01*
X53045106Y-51166000D01*
X52923067Y-51181417D01*
X52836000Y-51215889D01*
X52836000Y-50066000D01*
X52204467Y-50066000D01*
X52137428Y-50046315D01*
X52091673Y-49993511D01*
X52081729Y-49924353D01*
X52110754Y-49860797D01*
X52169532Y-49823023D01*
X52186272Y-49819342D01*
X52355464Y-49794244D01*
X52367568Y-49793052D01*
X52701467Y-49776648D01*
X52707551Y-49776500D01*
X52770392Y-49776500D01*
X88707608Y-49776500D01*
X88770449Y-49776500D01*
X88776532Y-49776648D01*
G37*
%TD.AperFunction*%
%TD*%
M02*
