M48
; DRILL file {KiCad 7.0.11+dfsg-1build4} date Sun 04 Aug 2024 12:39:07 AM CEST
; FORMAT={-:-/ absolute / inch / decimal}
; #@! TF.CreationDate,2024-08-04T00:39:07+02:00
; #@! TF.GenerationSoftware,Kicad,Pcbnew,7.0.11+dfsg-1build4
; #@! TF.FileFunction,Plated,1,4,PTH
FMAT,2
INCH
; #@! TA.AperFunction,Plated,PTH,ViaDrill
T1C0.0118
; #@! TA.AperFunction,Plated,PTH,ComponentDrill
T2C0.0315
; #@! TA.AperFunction,Plated,PTH,ComponentDrill
T3C0.0394
; #@! TA.AperFunction,Plated,PTH,ComponentDrill
T4C0.0512
%
G90
G05
T1
X1.95Y-2.225
X1.955Y-2.095
X1.9792Y-2.8942
X1.9852Y-2.0093
X2.04Y-2.125
X2.08Y-2.67
X2.085Y-2.58
X2.09Y-2.13
X2.125Y-2.45
X2.125Y-2.935
X2.135Y-2.13
X2.205Y-1.98
X2.225Y-2.8
X2.29Y-2.685
X2.305Y-2.625
X2.315Y-2.935
X2.32Y-2.5
X2.37Y-1.98
X2.48Y-2.72
X2.515Y-2.935
X2.52Y-1.975
X2.53Y-2.265
X2.53Y-2.595
X2.535Y-2.79
X2.69Y-2.935
X2.695Y-1.975
X2.73Y-2.83
X2.74Y-2.26
X2.745Y-2.6
X2.78Y-2.5
X2.78Y-2.535
X2.82Y-2.675
X2.82Y-2.735
X2.845Y-2.675
X2.855Y-2.935
X2.86Y-1.975
X2.885Y-2.295
X2.89Y-2.14
X2.97Y-2.65
X2.98Y-2.745
X3.0Y-2.935
X3.005Y-1.975
X3.04Y-2.145
X3.065Y-2.335
X3.07Y-2.4717
X3.165Y-2.935
X3.17Y-1.975
X3.18Y-2.805
X3.215Y-2.155
X3.24Y-2.32
X3.24Y-2.4
X3.24Y-2.475
X3.245Y-2.745
X3.2503Y-2.6397
X3.275Y-2.445
X3.355Y-2.935
X3.36Y-1.975
X3.405Y-2.26
X3.42Y-2.51
X3.455Y-2.42
X3.47Y-2.68
X3.49Y-2.76
X3.49Y-2.935
X3.495Y-1.975
X3.525Y-2.545
X3.5811Y-2.0055
X3.5845Y-2.901
X3.615Y-2.21
X3.615Y-2.775
X3.62Y-2.425
T2
X2.2Y-2.36
X2.2Y-2.46
X2.2Y-2.56
X3.11Y-2.78
X3.11Y-2.88
X3.34Y-2.16
X3.34Y-2.26
X3.34Y-2.36
X3.41Y-2.78
X3.41Y-2.88
T3
X2.0Y-2.3
X2.0Y-2.4
X2.0Y-2.5
X2.0Y-2.6
X2.0Y-2.7
X2.0Y-2.8
X2.5394Y-2.14
X2.6394Y-2.14
X2.7394Y-2.14
X3.58Y-2.5
X3.58Y-2.6
X3.58Y-2.7
T4
X2.09Y-2.04
X2.2869Y-2.04
M30
